<?xml version="1.0" encoding="UTF-8"?>
<svg xmlns="http://www.w3.org/2000/svg" xmlns:xlink="http://www.w3.org/1999/xlink" width="80px" height="80px" viewBox="0 0 80 80" version="1.1">
<g id="surface1">
<path style=" stroke:none;fill-rule:nonzero;fill:rgb(95.686275%,94.509804%,94.117647%);fill-opacity:1;" d="M 80 40 C 80 62.089844 62.089844 80 40 80 C 17.910156 80 0 62.089844 0 40 C 0 17.910156 17.910156 0 40 0 C 62.089844 0 80 17.910156 80 40 Z M 80 40 "/>
<path style=" stroke:none;fill-rule:nonzero;fill:rgb(40.392157%,37.254902%,34.509804%);fill-opacity:1;" d="M 54.023438 52.578125 C 53.933594 52.578125 53.847656 52.570312 53.761719 52.554688 C 53.582031 53.3125 52.894531 53.886719 52.089844 53.890625 L 19.347656 53.890625 C 18.40625 53.886719 17.625 53.109375 17.625 52.164062 L 17.625 30.265625 L 53.8125 30.265625 L 53.8125 31.355469 C 53.886719 31.34375 53.960938 31.335938 54.039062 31.335938 L 55.878906 31.335938 L 55.878906 27.835938 C 55.875 25.742188 54.179688 24.046875 52.089844 24.042969 L 19.347656 24.042969 C 17.253906 24.046875 15.558594 25.742188 15.554688 27.835938 L 15.554688 52.164062 C 15.558594 54.257812 17.253906 55.953125 19.347656 55.957031 L 52.089844 55.957031 C 54.039062 55.953125 55.625 54.472656 55.835938 52.578125 Z M 51.6875 26.472656 C 52.164062 26.472656 52.546875 26.859375 52.546875 27.335938 C 52.546875 27.808594 52.164062 28.195312 51.6875 28.195312 C 51.210938 28.195312 50.824219 27.808594 50.824219 27.335938 C 50.824219 26.859375 51.210938 26.472656 51.6875 26.472656 Z M 44.914062 26.527344 L 49.152344 26.527344 C 49.601562 26.527344 49.960938 26.886719 49.960938 27.335938 C 49.960938 27.78125 49.601562 28.144531 49.152344 28.144531 L 44.914062 28.144531 C 44.46875 28.144531 44.105469 27.78125 44.105469 27.335938 C 44.105469 26.886719 44.46875 26.527344 44.914062 26.527344 Z M 44.914062 26.527344 "/>
<path style=" stroke:none;fill-rule:nonzero;fill:rgb(40.392157%,37.254902%,34.509804%);fill-opacity:1;" d="M 56.210938 37.738281 C 55.835938 37.632812 55.4375 37.574219 55.03125 37.574219 C 54.773438 37.574219 54.527344 37.601562 54.28125 37.640625 C 53.371094 37.796875 52.554688 38.230469 51.929688 38.855469 C 51.132812 39.648438 50.644531 40.746094 50.644531 41.957031 C 50.644531 43.167969 51.132812 44.265625 51.929688 45.054688 C 52.496094 45.625 53.21875 46.03125 54.03125 46.222656 C 54.351562 46.296875 54.683594 46.339844 55.03125 46.339844 C 55.398438 46.339844 55.757812 46.289062 56.101562 46.203125 C 56.882812 46.007812 57.578125 45.605469 58.128906 45.054688 C 58.921875 44.265625 59.414062 43.167969 59.414062 41.957031 C 59.414062 40.746094 58.921875 39.648438 58.128906 38.855469 C 57.605469 38.332031 56.945312 37.945312 56.210938 37.738281 Z M 56.210938 43.082031 C 55.914062 43.394531 55.496094 43.59375 55.03125 43.59375 C 54.757812 43.59375 54.507812 43.519531 54.28125 43.40625 C 53.757812 43.132812 53.394531 42.589844 53.394531 41.957031 C 53.394531 41.324219 53.757812 40.78125 54.28125 40.507812 C 54.507812 40.390625 54.757812 40.320312 55.03125 40.320312 C 55.496094 40.320312 55.914062 40.515625 56.210938 40.828125 C 56.492188 41.125 56.667969 41.519531 56.667969 41.957031 C 56.667969 42.394531 56.492188 42.789062 56.210938 43.082031 Z M 56.210938 43.082031 "/>
<path style=" stroke:none;fill-rule:nonzero;fill:rgb(100%,57.647059%,11.764706%);fill-opacity:1;" d="M 64.1875 40.675781 L 62.203125 40.441406 C 62.015625 39.539062 61.660156 38.699219 61.171875 37.957031 L 62.40625 36.386719 C 62.496094 36.277344 62.488281 36.101562 62.386719 36.003906 L 60.984375 34.597656 C 60.882812 34.5 60.710938 34.488281 60.597656 34.578125 L 59.03125 35.8125 C 58.285156 35.328125 57.445312 34.96875 56.542969 34.78125 L 56.308594 32.800781 C 56.300781 32.730469 56.265625 32.664062 56.210938 32.617188 C 56.160156 32.574219 56.09375 32.542969 56.019531 32.542969 L 54.039062 32.542969 C 53.894531 32.542969 53.765625 32.660156 53.75 32.800781 L 53.515625 34.78125 C 52.613281 34.96875 51.773438 35.328125 51.027344 35.8125 L 49.460938 34.578125 C 49.351562 34.488281 49.175781 34.5 49.074219 34.597656 L 47.671875 36.003906 C 47.570312 36.105469 47.5625 36.277344 47.652344 36.386719 L 48.886719 37.957031 C 48.398438 38.699219 48.042969 39.539062 47.855469 40.441406 L 45.875 40.675781 C 45.730469 40.695312 45.617188 40.824219 45.617188 40.964844 L 45.617188 42.949219 C 45.617188 43.089844 45.730469 43.21875 45.875 43.238281 L 47.855469 43.46875 C 48.042969 44.375 48.398438 45.210938 48.886719 45.960938 L 48.082031 46.980469 L 47.652344 47.527344 C 47.5625 47.640625 47.574219 47.8125 47.675781 47.910156 L 48.675781 48.910156 L 48.691406 48.933594 L 49.074219 49.3125 C 49.175781 49.414062 49.351562 49.421875 49.460938 49.335938 L 49.972656 48.933594 L 49.996094 48.910156 L 51.027344 48.097656 C 51.546875 48.4375 52.113281 48.707031 52.710938 48.90625 C 52.734375 48.914062 52.753906 48.925781 52.773438 48.933594 C 53.015625 49.011719 53.261719 49.078125 53.515625 49.132812 L 53.75 51.113281 C 53.765625 51.253906 53.894531 51.367188 54.039062 51.371094 L 56.019531 51.367188 C 56.160156 51.371094 56.292969 51.253906 56.308594 51.113281 L 56.542969 49.132812 C 56.796875 49.078125 57.042969 49.011719 57.285156 48.933594 C 57.90625 48.730469 58.496094 48.449219 59.03125 48.097656 L 60.085938 48.929688 L 60.597656 49.335938 C 60.710938 49.421875 60.882812 49.414062 60.984375 49.3125 L 62.386719 47.910156 C 62.488281 47.808594 62.496094 47.636719 62.410156 47.527344 L 61.171875 45.960938 C 61.660156 45.210938 62.019531 44.371094 62.207031 43.46875 L 64.1875 43.238281 C 64.324219 43.21875 64.445312 43.089844 64.445312 42.949219 L 64.445312 40.964844 C 64.445312 40.824219 64.324219 40.695312 64.1875 40.675781 Z M 55.691406 47.191406 C 55.472656 47.21875 55.253906 47.238281 55.03125 47.238281 C 54.371094 47.238281 53.746094 47.109375 53.167969 46.890625 C 51.171875 46.140625 49.75 44.214844 49.75 41.957031 C 49.75 39.292969 51.722656 37.097656 54.28125 36.734375 C 54.527344 36.699219 54.773438 36.675781 55.03125 36.675781 C 55.4375 36.675781 55.832031 36.726562 56.210938 36.816406 C 58.554688 37.351562 60.308594 39.449219 60.308594 41.957031 C 60.308594 44.644531 58.296875 46.863281 55.691406 47.191406 Z M 55.691406 47.191406 "/>
<path style=" stroke:none;fill-rule:nonzero;fill:rgb(40.392157%,37.254902%,34.509804%);fill-opacity:1;" d="M 26.699219 38.332031 L 24.257812 45.847656 L 26.480469 45.847656 L 26.859375 44.445312 L 29.289062 44.445312 L 29.660156 45.847656 L 31.871094 45.847656 L 29.398438 38.332031 Z M 27.28125 42.785156 C 27.589844 41.613281 27.789062 40.828125 27.878906 40.425781 C 27.96875 40.027344 28.03125 39.742188 28.0625 39.566406 C 28.097656 39.753906 28.167969 40.066406 28.273438 40.5 C 28.382812 40.933594 28.472656 41.285156 28.546875 41.558594 L 28.871094 42.785156 Z M 27.28125 42.785156 "/>
<path style=" stroke:none;fill-rule:nonzero;fill:rgb(40.392157%,37.254902%,34.509804%);fill-opacity:1;" d="M 35.796875 38.363281 L 33.203125 38.363281 L 33.203125 45.847656 L 35.226562 45.847656 L 35.226562 43.367188 L 35.796875 43.367188 C 36.703125 43.367188 37.402344 43.136719 37.894531 42.683594 C 38.386719 42.226562 38.636719 41.582031 38.636719 40.746094 C 38.636719 39.984375 38.398438 39.398438 37.921875 38.984375 C 37.449219 38.570312 36.738281 38.363281 35.796875 38.363281 Z M 36.316406 41.460938 C 36.140625 41.632812 35.898438 41.71875 35.59375 41.71875 L 35.226562 41.71875 L 35.226562 39.996094 L 35.75 39.996094 C 36.308594 39.996094 36.585938 40.25 36.585938 40.753906 C 36.585938 41.054688 36.496094 41.292969 36.316406 41.460938 Z M 36.316406 41.460938 "/>
<path style=" stroke:none;fill-rule:nonzero;fill:rgb(40.392157%,37.254902%,34.509804%);fill-opacity:1;" d="M 40.351562 38.363281 L 42.382812 38.363281 L 42.382812 45.847656 L 40.351562 45.847656 Z M 40.351562 38.363281 "/>
</g>
</svg>
