<?xml version="1.0" encoding="UTF-8"?>
<svg xmlns="http://www.w3.org/2000/svg" xmlns:xlink="http://www.w3.org/1999/xlink" width="80px" height="80px" viewBox="0 0 80 80" version="1.1">
<g id="surface1">
<path style=" stroke:none;fill-rule:nonzero;fill:rgb(14.901961%,48.627451%,70.980392%);fill-opacity:1;" d="M 80 40 C 80 62.089844 62.089844 80 40 80 C 17.910156 80 0 62.089844 0 40 C 0 17.910156 17.910156 0 40 0 C 62.089844 0 80 17.910156 80 40 Z M 80 40 "/>
<path style=" stroke:none;fill-rule:nonzero;fill:rgb(100%,100%,100%);fill-opacity:1;" d="M 64.375 35.625 L 44.375 35.625 L 44.375 15.625 C 44.375 15.25 44.125 15 43.75 15 L 36.25 15 C 35.875 15 35.625 15.25 35.625 15.625 L 35.625 35.625 L 15.625 35.625 C 15.25 35.625 15 35.875 15 36.25 L 15 43.75 C 15 44.125 15.25 44.375 15.625 44.375 L 35.625 44.375 L 35.625 64.375 C 35.625 64.75 35.875 65 36.25 65 L 43.75 65 C 44.125 65 44.375 64.75 44.375 64.375 L 44.375 44.375 L 64.375 44.375 C 64.75 44.375 65 44.125 65 43.75 L 65 36.25 C 65 35.875 64.75 35.625 64.375 35.625 Z M 64.375 35.625 "/>
</g>
</svg>
