<?xml version="1.0" encoding="UTF-8"?>
<svg xmlns="http://www.w3.org/2000/svg" xmlns:xlink="http://www.w3.org/1999/xlink" width="80px" height="40px" viewBox="0 0 50 40" version="1.1">
<g id="surface1">
<path style=" stroke:none;fill-rule:nonzero;fill:rgb(0%,0%,0%);fill-opacity:1;" d="M 14.09375 15.859375 C 14.039062 17.628906 14.921875 18.414062 14.945312 18.910156 C 14.921875 19.117188 14.804688 19.300781 14.625 19.402344 L 13.625 20.101562 C 13.496094 20.191406 13.34375 20.242188 13.183594 20.25 C 13.152344 20.25 12.542969 20.394531 11.585938 18.25 C 10.398438 19.730469 8.589844 20.582031 6.691406 20.550781 C 5.421875 20.621094 1.972656 19.828125 2.152344 16.160156 C 2.027344 13.167969 4.8125 11.3125 7.691406 11.46875 C 8.246094 11.46875 9.378906 11.496094 11.363281 11.957031 L 11.363281 10.738281 C 11.574219 8.671875 10.214844 7.066406 7.863281 7.308594 C 7.675781 7.308594 6.347656 7.269531 4.28125 8.097656 C 3.707031 8.359375 3.632812 8.316406 3.441406 8.316406 C 2.863281 8.316406 3.101562 6.640625 3.210938 6.425781 C 3.621094 5.925781 6.015625 4.992188 8.363281 5.007812 C 9.933594 4.867188 11.5 5.351562 12.714844 6.355469 C 13.714844 7.472656 14.214844 8.953125 14.09375 10.445312 Z M 7.34375 18.390625 C 9.875 18.355469 10.949219 16.832031 11.195312 16.011719 C 11.386719 15.226562 11.355469 14.726562 11.355469 13.871094 C 10.597656 13.6875 9.511719 13.492188 8.261719 13.488281 C 7.078125 13.398438 4.917969 13.929688 5.003906 16.007812 C 4.90625 17.320312 5.871094 18.460938 7.34375 18.390625 Z M 20.695312 20.191406 C 20.082031 20.246094 19.796875 19.8125 19.707031 19.382812 L 15.816406 6.519531 C 15.738281 6.300781 15.6875 6.078125 15.664062 5.847656 C 15.636719 5.652344 15.769531 5.46875 15.964844 5.4375 C 15.984375 5.433594 15.800781 5.4375 17.703125 5.4375 C 18.390625 5.367188 18.613281 5.910156 18.683594 6.246094 L 21.476562 17.25 L 24.066406 6.246094 C 24.109375 5.996094 24.296875 5.382812 25.066406 5.449219 L 26.40625 5.449219 C 26.578125 5.433594 27.273438 5.410156 27.398438 6.257812 L 30.007812 17.402344 L 32.890625 6.257812 C 32.925781 6.085938 33.101562 5.371094 33.878906 5.449219 L 35.421875 5.449219 C 35.488281 5.4375 35.902344 5.382812 35.832031 6.117188 C 35.796875 6.261719 36.097656 5.285156 31.710938 19.390625 C 31.621094 19.820312 31.332031 20.257812 30.71875 20.203125 L 29.257812 20.203125 C 28.402344 20.292969 28.28125 19.445312 28.269531 19.363281 L 25.675781 8.648438 L 23.117188 19.351562 C 23.105469 19.4375 22.980469 20.28125 22.125 20.191406 Z M 42.0625 20.632812 C 41.601562 20.632812 39.410156 20.609375 37.582031 19.671875 C 37.207031 19.511719 36.964844 19.144531 36.96875 18.742188 L 36.96875 17.902344 C 36.96875 17.242188 37.453125 17.363281 37.660156 17.441406 C 38.445312 17.757812 38.949219 18 39.910156 18.191406 C 42.773438 18.777344 44.035156 18.011719 44.34375 17.839844 C 45.371094 17.230469 45.449219 15.835938 44.753906 15.109375 C 43.933594 14.421875 43.542969 14.398438 40.601562 13.46875 C 40.238281 13.367188 37.1875 12.40625 37.179688 9.378906 C 37.132812 7.171875 39.136719 4.988281 42.613281 5.007812 C 43.601562 5.007812 46.238281 5.332031 46.953125 6.226562 C 47.058594 6.390625 47.109375 6.582031 47.101562 6.777344 L 47.101562 7.566406 C 47.101562 7.914062 46.976562 8.089844 46.722656 8.089844 C 46.121094 8.019531 45.050781 7.214844 42.882812 7.25 C 42.34375 7.21875 39.765625 7.320312 39.882812 9.199219 C 39.847656 10.679688 41.960938 11.234375 42.203125 11.300781 C 45.050781 12.15625 46.003906 12.300781 47.132812 13.609375 C 48.472656 15.347656 47.75 17.382812 47.472656 17.941406 C 45.980469 20.871094 42.128906 20.632812 42.0625 20.632812 Z M 45.203125 28.824219 C 39.730469 32.863281 31.789062 35.015625 25.007812 35.015625 C 15.859375 35.074219 7.015625 31.710938 0.222656 25.582031 C -0.289062 25.121094 0.160156 24.492188 0.78125 24.84375 C 8.320312 29.15625 16.855469 31.421875 25.539062 31.414062 C 32.023438 31.378906 38.4375 30.066406 44.410156 27.542969 C 45.332031 27.152344 46.113281 28.152344 45.203125 28.824219 Z M 47.484375 26.222656 C 46.78125 25.324219 42.851562 25.800781 41.089844 26.011719 C 40.5625 26.074219 40.472656 25.613281 40.953125 25.273438 C 44.082031 23.070312 49.222656 23.703125 49.8125 24.441406 C 50.402344 25.183594 49.652344 30.332031 46.722656 32.792969 C 46.273438 33.175781 45.84375 32.972656 46.042969 32.472656 C 46.703125 30.8125 48.183594 27.125 47.484375 26.222656 Z M 47.484375 26.222656 "/>
</g>
</svg>
