<?xml version="1.0" encoding="UTF-8"?>
<svg xmlns="http://www.w3.org/2000/svg" xmlns:xlink="http://www.w3.org/1999/xlink" width="80px" height="80px" viewBox="0 0 80 80" version="1.1">
<g id="surface1">
<path style=" stroke:none;fill-rule:nonzero;fill:rgb(12.941176%,12.941176%,12.941176%);fill-opacity:1;" d="M 8 16 C 8 11.582031 11.582031 8 16 8 L 20 8 C 24.417969 8 28 11.582031 28 16 L 28 31 L 23 31 C 19.132812 31 16 34.132812 16 38 C 16 41.867188 19.132812 45 23 45 L 28 45 L 28 60 C 28 64.417969 24.417969 68 20 68 L 16 68 C 11.582031 68 8 64.417969 8 60 Z M 60 8 C 55.582031 8 52 11.582031 52 16 L 52 60 C 52 64.417969 55.582031 68 60 68 L 64 68 C 68.417969 68 72 64.417969 72 60 L 72 16 C 72 11.582031 68.417969 8 64 8 Z M 35.878906 27.878906 C 37.050781 26.707031 38.949219 26.707031 40.121094 27.878906 L 48.121094 35.878906 C 49.292969 37.050781 49.292969 38.949219 48.121094 40.121094 L 40.121094 48.121094 C 38.949219 49.292969 37.050781 49.292969 35.878906 48.121094 C 34.707031 46.949219 34.707031 45.050781 35.878906 43.878906 L 38.757812 41 L 22 41 C 20.34375 41 19 39.65625 19 38 C 19 36.34375 20.34375 35 22 35 L 38.757812 35 L 35.878906 32.121094 C 34.707031 30.949219 34.707031 29.050781 35.878906 27.878906 Z M 35.878906 27.878906 "/>
</g>
</svg>
