<svg width="569" height="433" viewBox="0 0 569 433" fill="none" xmlns="http://www.w3.org/2000/svg">
<g clip-path="url(#clip0)">
<path d="M327.494 42.3227L334.713 39.6272L332.998 26.9832L325.316 26.307C324.253 23.7348 322.844 21.3197 321.128 19.1281L324.343 12.116L314.15 4.39067L308.237 9.33713C305.679 8.28251 302.993 7.56929 300.249 7.21589L297.525 0L284.885 1.71366L284.208 9.3927C281.635 10.4612 279.216 11.8693 277.017 13.5796L270.002 10.3838L262.273 20.5732L267.231 26.483C266.167 29.056 265.453 31.7603 265.109 34.5233L257.89 37.2188L259.604 49.8536L267.277 50.5298C268.349 53.1004 269.758 55.5175 271.466 57.7179L268.269 64.73L278.463 72.4554L284.375 67.4996C286.944 68.5677 289.647 69.2814 292.409 69.6209L295.106 76.846L307.755 75.1231L308.432 67.4533C311.001 66.3833 313.417 64.9752 315.614 63.2664L322.638 66.4622L330.357 56.2729L325.409 50.3723C326.457 47.793 327.158 45.0863 327.494 42.3227ZM297.321 51.9933C294.734 52.0769 292.177 51.4258 289.946 50.1155C287.714 48.8052 285.9 46.8895 284.714 44.5904C283.528 42.2914 283.018 39.7033 283.243 37.1264C283.469 34.5494 284.421 32.0892 285.989 30.031C287.556 27.9729 289.676 26.4012 292.101 25.4982C294.526 24.5952 297.157 24.3979 299.69 24.9292C302.223 25.4606 304.553 26.6988 306.41 28.5002C308.267 30.3016 309.576 32.5924 310.183 35.1069C310.655 37.0823 310.683 39.1378 310.263 41.125C309.843 43.1122 308.987 44.9813 307.756 46.5972C306.525 48.2131 304.95 49.5355 303.146 50.4687C301.341 51.4019 299.351 51.9227 297.321 51.9933Z" fill="#CBECF7"/>
<path d="M387.942 59.5797L392.891 57.7271L391.714 49.094L386.46 48.6308C385.724 46.8713 384.758 45.2172 383.587 43.7122L385.783 38.9047L378.833 33.6155L374.783 37.0057C373.02 36.2817 371.169 35.7927 369.279 35.5515L367.425 30.6143L358.77 31.7907L358.307 37.0428C356.546 37.7739 354.892 38.7365 353.386 39.9051L348.576 37.719L343.294 44.6663L346.686 48.7142C345.956 50.4747 345.467 52.3254 345.231 54.2164L340.282 56.069L341.459 64.7207L346.714 65.1839C347.449 66.9434 348.415 68.5974 349.586 70.1025L347.39 74.9008L354.34 80.19L358.39 76.7997C360.152 77.5283 362.003 78.0175 363.895 78.254L365.748 83.1912L374.385 82.0055L374.848 76.7441C376.61 76.0165 378.266 75.0537 379.769 73.8818L384.578 76.0679L389.861 69.1206L386.469 65.082C387.208 63.3234 387.704 61.4723 387.942 59.5797ZM367.296 66.2028C365.522 66.2645 363.767 65.8217 362.235 64.926C360.703 64.0302 359.456 62.7182 358.64 61.1425C357.825 59.5668 357.473 57.792 357.626 56.0245C357.78 54.2569 358.432 52.5691 359.507 51.1573C360.582 49.7454 362.035 48.6675 363.699 48.0487C365.362 47.4299 367.167 47.2957 368.904 47.6617C370.641 48.0277 372.238 48.8788 373.51 50.1162C374.782 51.3536 375.677 52.9264 376.09 54.6518C376.408 56.0024 376.424 57.4066 376.135 58.7638C375.846 60.121 375.26 61.3974 374.42 62.5016C373.579 63.6058 372.504 64.5102 371.273 65.1501C370.041 65.7901 368.683 66.1495 367.296 66.2028Z" fill="#CBECF7"/>
<path d="M552.069 393.901V325.354C552.071 324.539 551.84 323.74 551.403 323.051C550.966 322.362 550.341 321.813 549.602 321.468C548.863 321.122 548.041 320.995 547.232 321.101C546.423 321.207 545.661 321.542 545.036 322.066L507.477 353.421C506.709 354.052 505.746 354.397 504.752 354.397C503.759 354.397 502.796 354.052 502.028 353.421L474.338 330.894C473.523 330.23 472.492 329.889 471.441 329.935C470.39 329.981 469.393 330.411 468.639 331.144L407.264 390.807C406.651 391.4 406.229 392.163 406.052 392.997C405.876 393.832 405.953 394.7 406.274 395.49C406.594 396.281 407.144 396.958 407.852 397.433C408.56 397.909 409.395 398.163 410.248 398.162H547.788C548.92 398.162 550.007 397.713 550.809 396.915C551.611 396.116 552.065 395.032 552.069 393.901Z" fill="#CBECF7"/>
<path d="M426.558 309.969H417.55V407.981H426.558V309.969Z" fill="white"/>
<path d="M445.926 309.969H436.918V407.981H445.926V309.969Z" fill="white"/>
<path d="M465.284 309.969H456.277V407.981H465.284V309.969Z" fill="white"/>
<path d="M484.652 309.969H475.645V407.981H484.652V309.969Z" fill="white"/>
<path d="M504.02 309.969H495.013V407.981H504.02V309.969Z" fill="white"/>
<path d="M523.379 309.969H514.371V407.981H523.379V309.969Z" fill="white"/>
<path d="M542.747 309.969H533.739V407.981H542.747V309.969Z" fill="white"/>
<path d="M396.144 392.493L467.916 321.362C468.868 320.435 470.127 319.89 471.455 319.831C472.782 319.771 474.085 320.2 475.116 321.038L501.305 342.343C502.28 343.137 503.502 343.568 504.76 343.559C506.019 343.551 507.235 343.104 508.199 342.296L552.069 305.68" stroke="#16AADB" stroke-width="9.07" stroke-linecap="round" stroke-linejoin="round"/>
<path d="M542.598 299.288L557.203 299.483C557.414 299.488 557.614 299.575 557.761 299.725C557.908 299.876 557.991 300.078 557.991 300.289L557.787 314.943C557.786 315.101 557.737 315.256 557.648 315.387C557.559 315.517 557.432 315.619 557.285 315.677C557.138 315.736 556.976 315.749 556.822 315.716C556.667 315.682 556.525 315.604 556.415 315.489L542.014 300.668C541.894 300.557 541.811 300.412 541.777 300.251C541.742 300.091 541.758 299.924 541.822 299.774C541.886 299.623 541.994 299.495 542.133 299.408C542.272 299.321 542.435 299.279 542.598 299.288Z" fill="#16AADB"/>
<path d="M500.008 351.763C499.155 351.102 498.496 350.223 498.101 349.218C497.707 348.214 497.59 347.122 497.765 346.057L504.558 304.448C504.581 304.301 504.635 304.16 504.717 304.036C504.798 303.911 504.905 303.806 505.03 303.725C505.156 303.646 505.297 303.595 505.444 303.576C505.592 303.557 505.741 303.57 505.883 303.614C507.453 304.072 509.05 304.434 510.665 304.698C512.278 304.962 513.906 305.126 515.539 305.189C515.688 305.193 515.835 305.23 515.969 305.295C516.103 305.361 516.222 305.454 516.317 305.568C516.41 305.685 516.478 305.819 516.516 305.962C516.554 306.106 516.562 306.255 516.54 306.402L509.747 348.012C509.621 348.79 509.343 349.536 508.928 350.207C508.513 350.877 507.969 351.46 507.329 351.92C506.688 352.38 505.963 352.71 505.195 352.89C504.427 353.069 503.631 353.096 502.853 352.967H502.732C501.737 352.803 500.799 352.389 500.008 351.763Z" fill="#000643"/>
<path d="M496.996 361.712C495.752 360.743 494.791 359.458 494.213 357.992C493.634 356.526 493.459 354.932 493.706 353.375L499.646 316.99C499.67 316.844 499.724 316.705 499.806 316.582C499.887 316.459 499.994 316.355 500.119 316.277C500.246 316.198 500.389 316.147 500.537 316.126C500.685 316.105 500.836 316.116 500.981 316.156C503.453 316.891 505.969 317.466 508.515 317.879C511.063 318.296 513.635 318.553 516.216 318.648C516.365 318.653 516.511 318.689 516.646 318.754C516.78 318.82 516.898 318.913 516.994 319.028C517.087 319.144 517.154 319.278 517.193 319.421C517.231 319.565 517.239 319.715 517.216 319.861L511.276 356.237C510.899 358.54 509.622 360.599 507.726 361.961C505.83 363.323 503.47 363.877 501.166 363.499H500.981C499.522 363.251 498.151 362.636 496.996 361.712Z" fill="#000643"/>
<path opacity="0.39" d="M548.993 277.78C547.955 284.134 545.055 290.038 540.66 294.745C536.265 299.452 530.572 302.75 524.301 304.222C518.03 305.695 511.464 305.275 505.432 303.017C499.4 300.758 494.173 296.762 490.413 291.535C486.653 286.307 484.529 280.082 484.309 273.647C484.089 267.212 485.783 260.857 489.177 255.384C492.571 249.912 497.512 245.568 503.376 242.904C509.239 240.239 515.762 239.372 522.119 240.413C530.638 241.808 538.255 246.528 543.295 253.535C548.334 260.542 550.384 269.263 548.993 277.78Z" fill="#16AADB"/>
<path d="M495.782 299.622C491.011 295.903 487.31 290.989 485.053 285.378C482.797 279.767 482.066 273.659 482.934 267.675C483.803 261.69 486.24 256.042 489.998 251.303C493.757 246.564 498.702 242.904 504.333 240.694C509.965 238.483 516.081 237.801 522.06 238.717C528.04 239.633 533.672 242.114 538.382 245.909C543.093 249.704 546.715 254.676 548.881 260.323C551.047 265.969 551.68 272.088 550.716 278.057C549.754 283.928 547.282 289.448 543.542 294.076C539.803 298.704 534.924 302.28 529.384 304.455C523.844 306.63 517.834 307.327 511.943 306.48C506.053 305.633 500.483 303.269 495.782 299.622ZM535.778 248.249C530.447 244.102 523.901 241.819 517.147 241.752C510.392 241.686 503.802 243.838 498.39 247.879C492.978 251.92 489.044 257.626 487.192 264.119C485.34 270.612 485.672 277.534 488.138 283.82C490.605 290.106 495.068 295.409 500.842 298.913C506.617 302.417 513.382 303.928 520.1 303.215C526.817 302.501 533.114 299.602 538.022 294.963C542.931 290.324 546.18 284.203 547.269 277.539C548.16 272.075 547.563 266.472 545.541 261.319C543.52 256.165 540.147 251.651 535.778 248.249Z" fill="#000643"/>
<path d="M498.506 341.305C498.366 341.184 498.26 341.027 498.201 340.851C498.143 340.675 498.133 340.486 498.173 340.305L498.858 337.072C498.881 336.932 498.931 336.798 499.006 336.678C499.082 336.558 499.181 336.455 499.298 336.374C499.414 336.294 499.546 336.238 499.685 336.21C499.824 336.182 499.967 336.182 500.106 336.211C500.245 336.24 500.376 336.297 500.493 336.378C500.609 336.459 500.707 336.563 500.782 336.683C500.857 336.804 500.907 336.938 500.928 337.078C500.949 337.218 500.942 337.361 500.906 337.498L500.221 340.731C500.163 341.003 500 341.241 499.767 341.394C499.535 341.546 499.252 341.601 498.979 341.546C498.805 341.504 498.643 341.422 498.506 341.305Z" fill="#000643"/>
<path d="M474.987 85.8496H21.7959C15.9153 85.8496 11.1482 90.6147 11.1482 96.4928V422.347C11.1482 428.226 15.9153 432.991 21.7959 432.991H474.987C480.867 432.991 485.635 428.226 485.635 422.347V96.4928C485.635 90.6147 480.867 85.8496 474.987 85.8496Z" fill="#16AADB"/>
<path d="M485.634 57.3196H11.1481C4.99119 57.3196 0 62.3087 0 68.463V409.629C0 415.784 4.99119 420.773 11.1481 420.773H485.634C491.791 420.773 496.783 415.784 496.783 409.629V68.463C496.783 62.3087 491.791 57.3196 485.634 57.3196Z" fill="white"/>
<path d="M195.653 58.2458H11.1203C8.17104 58.2458 5.34254 59.417 3.25707 61.5015C1.1716 63.5861 0 66.4134 0 69.3615L0 410.556C0 413.504 1.1716 416.331 3.25707 418.416C5.34254 420.5 8.17104 421.671 11.1203 421.671H195.625L195.653 58.2458Z" fill="white"/>
<path d="M300.555 58.2458H485.069C488.018 58.2458 490.847 59.417 492.932 61.5015C495.018 63.5861 496.189 66.4134 496.189 69.3615V410.556C496.189 413.504 495.018 416.331 492.932 418.416C490.847 420.5 488.018 421.671 485.069 421.671H300.555V58.2458Z" fill="white"/>
<path d="M485.634 61.0248C487.846 61.0248 489.968 61.9031 491.532 63.4666C493.096 65.03 493.975 67.1505 493.975 69.3615V410.556C493.975 412.767 493.096 414.887 491.532 416.451C489.968 418.014 487.846 418.892 485.634 418.892H11.1203C8.90837 418.892 6.78699 418.014 5.22289 416.451C3.65879 414.887 2.78009 412.767 2.78009 410.556V69.3893C2.78009 67.1783 3.65879 65.0578 5.22289 63.4944C6.78699 61.9309 8.90837 61.0526 11.1203 61.0526H485.588L485.634 61.0248ZM485.588 58.2737H11.1203C8.17104 58.2737 5.34254 59.4448 3.25707 61.5294C1.1716 63.614 0 66.4413 0 69.3893L0 410.556C0 413.504 1.1716 416.331 3.25707 418.416C5.34254 420.5 8.17104 421.671 11.1203 421.671H485.588C488.537 421.671 491.366 420.5 493.451 418.416C495.537 416.331 496.709 413.504 496.709 410.556V69.3893C496.709 66.4413 495.537 63.614 493.451 61.5294C491.366 59.4448 488.537 58.2737 485.588 58.2737Z" fill="#01284D"/>
<path d="M0 69.3893C0 66.4413 1.1716 63.614 3.25707 61.5294C5.34254 59.4448 8.17104 58.2737 11.1203 58.2737H485.588C488.537 58.2737 491.366 59.4448 493.451 61.5294C495.537 63.614 496.709 66.4413 496.709 69.3893V93.5565H0V69.3893Z" fill="#01284D"/>
<path fill-rule="evenodd" clip-rule="evenodd" d="M26.3368 81.7C27.4764 81.66 28.5791 81.2857 29.5074 80.6237C30.4357 79.9616 31.1486 79.0412 31.5573 77.9771C31.966 76.9129 32.0524 75.7521 31.8057 74.6392C31.559 73.5263 30.9901 72.5106 30.17 71.7186C29.3499 70.9266 28.3147 70.3934 27.1935 70.1853C26.0723 69.9772 24.9147 70.1035 23.8648 70.5485C22.8149 70.9934 21.9192 71.7373 21.2893 72.6875C20.6595 73.6377 20.3232 74.7522 20.3225 75.8921C20.3358 76.6682 20.5019 77.4341 20.8113 78.146C21.1208 78.858 21.5675 79.502 22.126 80.0413C22.6845 80.5807 23.3438 81.0048 24.0663 81.2893C24.7888 81.5739 25.5603 81.7135 26.3368 81.7ZM46.3904 81.7C47.5301 81.66 48.6328 81.2857 49.5611 80.6237C50.4894 79.9616 51.2023 79.0412 51.611 77.9771C52.0197 76.9129 52.106 75.7521 51.8594 74.6392C51.6127 73.5263 51.0438 72.5106 50.2237 71.7186C49.4036 70.9266 48.3684 70.3934 47.2472 70.1853C46.126 69.9772 44.9684 70.1035 43.9185 70.5485C42.8686 70.9934 41.9729 71.7373 41.343 72.6875C40.7131 73.6377 40.3769 74.7522 40.3762 75.8921C40.4054 77.4587 41.055 78.9499 42.1824 80.0386C43.3098 81.1273 44.823 81.7248 46.3904 81.7ZM72.4491 75.8921C72.4897 77.0889 72.1718 78.2706 71.5361 79.2857C70.9004 80.3007 69.976 81.1029 68.8812 81.5893C67.7864 82.0757 66.5713 82.2242 65.3915 82.0158C64.2118 81.8074 63.1212 81.2515 62.2595 80.4194C61.3979 79.5873 60.8045 78.517 60.5555 77.3456C60.3064 76.1743 60.413 74.9552 60.8616 73.8448C61.3102 72.7344 62.0803 71.7832 63.0733 71.1132C64.0663 70.4432 65.2368 70.0848 66.4349 70.0841C67.2113 70.0706 67.9828 70.2102 68.7053 70.4948C69.4278 70.7794 70.0871 71.2034 70.6456 71.7428C71.2041 72.2821 71.6508 72.9261 71.9603 73.6381C72.2697 74.35 72.4358 75.1159 72.4491 75.8921Z" fill="white"/>
<path d="M255.304 324.901C299.672 324.901 335.64 288.949 335.64 244.599C335.64 200.25 299.672 164.298 255.304 164.298C210.937 164.298 174.969 200.25 174.969 244.599C174.969 288.949 210.937 324.901 255.304 324.901Z" fill="#16AADB"/>
<path d="M115.726 289.155H143.786C147.514 289.155 151.091 287.676 153.73 285.043C156.369 282.41 157.855 278.839 157.862 275.112V275.112C157.862 271.379 159.345 267.799 161.985 265.159C164.624 262.519 168.205 261.034 171.939 261.032H217.495" stroke="#CBECF7" stroke-width="2.79" stroke-miterlimit="10"/>
<path d="M119.164 256.261H217.495" stroke="#CBECF7" stroke-width="2.79" stroke-miterlimit="10"/>
<path d="M77.4531 261.217H125.697C129.43 261.217 133.011 259.735 135.65 257.096C138.29 254.457 139.773 250.878 139.773 247.147C139.771 243.417 141.25 239.838 143.886 237.198C146.523 234.558 150.1 233.072 153.831 233.067H217.495" stroke="#CBECF7" stroke-width="2.79" stroke-miterlimit="10"/>
<path d="M223.435 251.028H189.769C186.035 251.028 182.455 249.545 179.815 246.907C177.175 244.268 175.692 240.689 175.692 236.957V236.957C175.69 233.225 174.204 229.646 171.563 227.007C168.922 224.369 165.34 222.887 161.606 222.887H115.726" stroke="#CBECF7" stroke-width="2.79" stroke-miterlimit="10"/>
<path d="M362.56 284.634H328.893C325.16 284.634 321.58 283.152 318.94 280.513C316.3 277.874 314.817 274.295 314.817 270.564V270.564C314.817 266.832 313.334 263.253 310.694 260.614C308.054 257.976 304.474 256.493 300.74 256.493H254.841" stroke="#CBECF7" stroke-width="2.79" stroke-miterlimit="10"/>
<path d="M278.24 219.33H214.067V238.291H278.24V219.33Z" fill="white" stroke="#16AADB" stroke-width="3.84" stroke-linecap="round" stroke-linejoin="round"/>
<path d="M220.563 228.815H240.459" stroke="#16AADB" stroke-width="3.18" stroke-linecap="round" stroke-linejoin="round"/>
<path d="M278.24 200.155H214.067V219.117H278.24V200.155Z" fill="white" stroke="#16AADB" stroke-width="3.84" stroke-linecap="round" stroke-linejoin="round"/>
<path d="M220.563 209.631H240.459" stroke="#16AADB" stroke-width="3.18" stroke-linecap="round" stroke-linejoin="round"/>
<path d="M278.24 237.976H214.067V256.938H278.24V237.976Z" fill="white" stroke="#16AADB" stroke-width="3.84" stroke-linecap="round" stroke-linejoin="round"/>
<path d="M220.563 247.452H240.459" stroke="#16AADB" stroke-width="3.18" stroke-linecap="round" stroke-linejoin="round"/>
<path d="M278.24 256.614H214.067V275.575H278.24V256.614Z" fill="white" stroke="#16AADB" stroke-width="3.84" stroke-linecap="round" stroke-linejoin="round"/>
<path d="M220.563 266.099H240.459" stroke="#16AADB" stroke-width="3.18" stroke-linecap="round" stroke-linejoin="round"/>
<path d="M278.24 275.26H214.067V294.221H278.24V275.26Z" fill="white" stroke="#16AADB" stroke-width="3.84" stroke-linecap="round" stroke-linejoin="round"/>
<path d="M220.563 284.736H240.459" stroke="#16AADB" stroke-width="3.18" stroke-linecap="round" stroke-linejoin="round"/>
<path d="M278.259 201.221H214.085V219.33H214.067V237.976V238.291V256.614V256.938V275.26V275.575V294.221H278.24V275.575V275.26V256.938V256.614V238.291V237.976V220.182H278.259V201.221Z" stroke="#01284D" stroke-width="3.18" stroke-linecap="round" stroke-linejoin="round"/>
<path d="M299.443 201.221H278.704V219.33V237.976V238.291V256.614V256.938V275.26V275.575V294.221H299.434V275.575V275.26V256.938V256.614V238.291V237.976V220.182H299.443V201.221Z" fill="#01284D" stroke="#01284D" stroke-width="3.18" stroke-linecap="round" stroke-linejoin="round"/>
<path d="M46.2422 352.458V373.355C46.2422 373.495 46.2698 373.633 46.3235 373.762C46.3771 373.89 46.4558 374.007 46.5549 374.105C46.654 374.204 46.7715 374.281 46.9008 374.334C47.03 374.386 47.1684 374.413 47.3079 374.411H67.0743C67.3553 374.412 67.625 374.301 67.8246 374.103C68.0242 373.905 68.1375 373.636 68.14 373.355V352.458C68.1375 352.177 68.0242 351.909 67.8246 351.711C67.625 351.513 67.3553 351.402 67.0743 351.402H47.3079C47.1684 351.401 47.03 351.427 46.9008 351.48C46.7715 351.532 46.654 351.61 46.5549 351.708C46.4558 351.806 46.3771 351.923 46.3235 352.052C46.2698 352.181 46.2422 352.319 46.2422 352.458Z" fill="#16AADB"/>
<path d="M62.4593 359.822C62.4593 358.837 62.1673 357.874 61.6203 357.055C61.0733 356.236 60.2957 355.597 59.3858 355.22C58.4759 354.842 57.4744 354.742 56.5078 354.933C55.5412 355.124 54.6528 355.597 53.9548 356.292C53.2569 356.987 52.7806 357.873 52.5861 358.839C52.3916 359.804 52.4877 360.805 52.8622 361.716C53.2368 362.627 53.8729 363.407 54.6903 363.957C55.5078 364.507 56.4699 364.802 57.4551 364.806C58.1114 364.808 58.7617 364.681 59.3687 364.432C59.9758 364.182 60.5276 363.816 60.9925 363.353C61.4574 362.89 61.8263 362.339 62.078 361.733C62.3297 361.128 62.4593 360.478 62.4593 359.822Z" fill="#CBECF7"/>
<path d="M57.4551 365.889C62.2831 365.889 66.1938 368.983 66.1938 372.809H48.7349C48.7349 368.983 52.6455 365.889 57.4551 365.889Z" fill="#CBECF7"/>
<path d="M146.918 133.017V153.905C146.918 154.186 147.029 154.455 147.227 154.655C147.425 154.855 147.694 154.968 147.975 154.97H167.732C168.013 154.968 168.282 154.855 168.479 154.655C168.677 154.455 168.788 154.186 168.788 153.905V133.017C168.789 132.877 168.763 132.739 168.711 132.61C168.658 132.481 168.58 132.363 168.482 132.264C168.384 132.165 168.267 132.087 168.138 132.033C168.009 131.979 167.871 131.952 167.732 131.952H147.975C147.835 131.952 147.697 131.979 147.568 132.033C147.439 132.087 147.323 132.165 147.224 132.264C147.126 132.363 147.049 132.481 146.996 132.61C146.943 132.739 146.917 132.877 146.918 133.017Z" fill="#000643"/>
<path d="M163.098 140.372C163.098 139.386 162.806 138.423 162.258 137.603C161.71 136.784 160.931 136.145 160.02 135.768C159.109 135.391 158.107 135.292 157.14 135.484C156.173 135.676 155.284 136.151 154.587 136.848C153.89 137.545 153.415 138.433 153.223 139.4C153.03 140.366 153.129 141.368 153.506 142.279C153.884 143.19 154.523 143.968 155.343 144.516C156.163 145.063 157.127 145.355 158.113 145.355C159.434 145.353 160.701 144.827 161.635 143.893C162.57 142.959 163.096 141.693 163.098 140.372Z" fill="#16AADB"/>
<path d="M158.15 146.439C162.978 146.439 166.889 149.542 166.889 153.359H149.411C149.411 149.542 153.322 146.439 158.15 146.439Z" fill="#16AADB"/>
<path d="M128.115 338.313V359.201C128.115 359.482 128.226 359.752 128.424 359.951C128.622 360.151 128.891 360.264 129.172 360.267H148.948C149.229 360.264 149.497 360.151 149.695 359.951C149.893 359.752 150.004 359.482 150.004 359.201V338.313C150.004 338.032 149.893 337.763 149.695 337.563C149.497 337.364 149.229 337.25 148.948 337.248H129.172C128.891 337.25 128.622 337.364 128.424 337.563C128.226 337.763 128.115 338.032 128.115 338.313Z" fill="#CBECF7"/>
<path d="M144.333 345.668C144.333 344.683 144.04 343.719 143.493 342.9C142.945 342.08 142.166 341.441 141.255 341.064C140.344 340.687 139.342 340.588 138.375 340.781C137.407 340.973 136.519 341.447 135.822 342.144C135.125 342.841 134.65 343.729 134.457 344.696C134.265 345.663 134.364 346.665 134.741 347.575C135.118 348.486 135.757 349.264 136.577 349.812C137.397 350.36 138.361 350.652 139.347 350.652C140.669 350.649 141.935 350.124 142.87 349.189C143.804 348.255 144.33 346.989 144.333 345.668Z" fill="#16AADB"/>
<path d="M139.347 351.736C144.175 351.736 148.086 354.839 148.086 358.655H130.608C130.608 354.839 134.519 351.736 139.347 351.736Z" fill="#16AADB"/>
<path d="M54.6751 243.386V264.274C54.6751 264.555 54.7861 264.825 54.9839 265.024C55.1818 265.224 55.4505 265.337 55.7315 265.339H75.535C75.816 265.337 76.0847 265.224 76.2826 265.024C76.4804 264.825 76.5914 264.555 76.5914 264.274V243.386C76.5927 243.246 76.5662 243.108 76.5137 242.979C76.4611 242.85 76.3835 242.732 76.2853 242.633C76.1871 242.534 76.0702 242.456 75.9414 242.402C75.8126 242.348 75.6745 242.321 75.535 242.321H55.7593C55.6175 242.317 55.4763 242.342 55.3443 242.394C55.2123 242.446 55.0921 242.524 54.9909 242.623C54.8897 242.723 54.8096 242.841 54.7554 242.972C54.7011 243.103 54.6738 243.244 54.6751 243.386Z" fill="#006E9E"/>
<path d="M70.9107 250.741C70.9107 249.755 70.6183 248.792 70.0705 247.972C69.5226 247.153 68.744 246.514 67.833 246.137C66.922 245.759 65.9195 245.661 64.9524 245.853C63.9853 246.045 63.097 246.52 62.3997 247.217C61.7025 247.914 61.2276 248.802 61.0353 249.769C60.8429 250.735 60.9416 251.737 61.319 252.648C61.6963 253.559 62.3353 254.337 63.1552 254.884C63.9751 255.432 64.939 255.724 65.9251 255.724C67.2473 255.724 68.5155 255.199 69.4504 254.265C70.3854 253.33 70.9107 252.063 70.9107 250.741Z" fill="#CBECF7"/>
<path d="M65.9343 256.808C70.7531 256.808 74.673 259.911 74.673 263.728H57.1863C57.1863 259.911 61.1062 256.808 65.9343 256.808Z" fill="#CBECF7"/>
<path d="M178.852 349.475V370.373C178.854 370.654 178.968 370.922 179.167 371.12C179.367 371.318 179.637 371.429 179.918 371.429H199.684C199.824 371.43 199.962 371.404 200.091 371.351C200.221 371.299 200.338 371.221 200.437 371.123C200.536 371.025 200.615 370.908 200.669 370.779C200.722 370.65 200.75 370.512 200.75 370.373V349.475C200.75 349.336 200.722 349.198 200.669 349.069C200.615 348.94 200.536 348.824 200.437 348.725C200.338 348.627 200.221 348.55 200.091 348.497C199.962 348.445 199.824 348.418 199.684 348.419H179.899C179.621 348.424 179.356 348.537 179.161 348.735C178.965 348.932 178.854 349.198 178.852 349.475Z" fill="#16AADB"/>
<path d="M195.051 356.839C195.051 355.854 194.758 354.89 194.211 354.071C193.663 353.251 192.884 352.612 191.973 352.235C191.062 351.858 190.06 351.759 189.093 351.952C188.125 352.144 187.237 352.619 186.54 353.316C185.843 354.013 185.368 354.901 185.175 355.867C184.983 356.834 185.082 357.836 185.459 358.747C185.836 359.657 186.475 360.435 187.295 360.983C188.115 361.531 189.079 361.823 190.065 361.823C191.387 361.82 192.653 361.295 193.588 360.361C194.522 359.427 195.048 358.16 195.051 356.839Z" fill="#CBECF7"/>
<path d="M190.065 362.907C194.893 362.907 198.813 366.001 198.813 369.826H181.326C181.326 366.001 185.246 362.907 190.065 362.907Z" fill="#CBECF7"/>
<path d="M89.1204 242.562V263.45C89.1204 263.731 89.2314 264 89.4292 264.2C89.6271 264.399 89.8958 264.513 90.1768 264.515H109.952C110.234 264.513 110.502 264.399 110.7 264.2C110.898 264 111.009 263.731 111.009 263.45V242.562C111.009 242.281 110.898 242.011 110.7 241.812C110.502 241.612 110.234 241.499 109.952 241.496H90.1768C89.8958 241.499 89.6271 241.612 89.4292 241.812C89.2314 242.011 89.1204 242.281 89.1204 242.562Z" fill="#16AADB"/>
<path d="M105.328 249.916C105.328 248.93 105.036 247.966 104.487 247.147C103.939 246.327 103.16 245.688 102.248 245.311C101.337 244.934 100.334 244.836 99.3665 245.029C98.3991 245.222 97.5108 245.698 96.8139 246.396C96.117 247.094 95.6429 247.983 95.4516 248.95C95.2603 249.917 95.3603 250.919 95.7391 251.83C96.1179 252.74 96.7583 253.518 97.5794 254.065C98.4005 254.611 99.3654 254.902 100.352 254.9C101.672 254.897 102.938 254.371 103.871 253.437C104.804 252.503 105.328 251.236 105.328 249.916Z" fill="#CBECF7"/>
<path d="M100.352 255.984C105.171 255.984 109.09 259.087 109.09 262.903H91.6038C91.6038 259.087 95.5237 255.984 100.352 255.984Z" fill="#CBECF7"/>
<path d="M54.4155 209.094V229.992C54.4155 230.272 54.5268 230.54 54.7249 230.738C54.9231 230.936 55.1918 231.048 55.472 231.048H75.2476C75.5278 231.048 75.7965 230.936 75.9946 230.738C76.1928 230.54 76.3041 230.272 76.3041 229.992V209.094C76.3041 208.814 76.1928 208.546 75.9946 208.348C75.7965 208.15 75.5278 208.038 75.2476 208.038H55.472C55.1918 208.038 54.9231 208.15 54.7249 208.348C54.5268 208.546 54.4155 208.814 54.4155 209.094Z" fill="#000643"/>
<path d="M70.6326 216.458C70.6326 215.473 70.3402 214.509 69.7924 213.69C69.2446 212.87 68.4659 212.231 67.5549 211.854C66.6439 211.477 65.6415 211.378 64.6743 211.571C63.7072 211.763 62.8189 212.238 62.1216 212.934C61.4244 213.631 60.9495 214.519 60.7572 215.486C60.5648 216.453 60.6635 217.455 61.0409 218.365C61.4182 219.276 62.0573 220.054 62.8771 220.602C63.697 221.15 64.6609 221.442 65.647 221.442C66.9685 221.439 68.2352 220.914 69.1697 219.98C70.1041 219.045 70.6302 217.779 70.6326 216.458Z" fill="#16AADB"/>
<path d="M65.6472 222.526C70.4753 222.526 74.3859 225.629 74.3859 229.445H56.9084C56.9084 225.629 60.8191 222.526 65.6472 222.526Z" fill="#16AADB"/>
<path d="M88.6014 278.595V299.483C88.6013 299.764 88.7124 300.033 88.9102 300.233C89.1081 300.432 89.3768 300.545 89.6578 300.548H109.433C109.714 300.545 109.983 300.432 110.181 300.233C110.379 300.033 110.49 299.764 110.49 299.483V278.595C110.491 278.455 110.465 278.317 110.412 278.188C110.36 278.058 110.282 277.941 110.184 277.842C110.086 277.743 109.969 277.664 109.84 277.611C109.711 277.557 109.573 277.529 109.433 277.529H89.6578C89.5183 277.529 89.3801 277.557 89.2514 277.611C89.1226 277.664 89.0057 277.743 88.9075 277.842C88.8093 277.941 88.7316 278.058 88.6791 278.188C88.6266 278.317 88.6001 278.455 88.6014 278.595Z" fill="#CBECF7"/>
<path d="M104.809 285.95C104.809 284.964 104.516 284 103.968 283.18C103.42 282.36 102.641 281.721 101.729 281.345C100.818 280.968 99.8148 280.869 98.8475 281.063C97.8801 281.256 96.9918 281.731 96.2949 282.429C95.598 283.127 95.1239 284.016 94.9326 284.983C94.7412 285.95 94.8413 286.953 95.2201 287.863C95.5988 288.774 96.2393 289.551 97.0604 290.098C97.8815 290.644 98.8463 290.935 99.8328 290.933C101.153 290.931 102.419 290.404 103.352 289.47C104.285 288.536 104.809 287.27 104.809 285.95Z" fill="#16AADB"/>
<path d="M99.833 292.017C104.652 292.017 108.572 295.12 108.572 298.936H91.085C91.085 295.12 95.0049 292.017 99.833 292.017Z" fill="#16AADB"/>
<path d="M88.24 203.657V224.554C88.2424 224.835 88.3558 225.104 88.5554 225.302C88.755 225.499 89.0246 225.61 89.3057 225.61H109.072C109.212 225.611 109.35 225.585 109.479 225.533C109.608 225.48 109.726 225.402 109.825 225.304C109.924 225.206 110.003 225.089 110.057 224.96C110.11 224.832 110.138 224.694 110.138 224.554V203.657C110.138 203.517 110.11 203.379 110.057 203.251C110.003 203.122 109.924 203.005 109.825 202.907C109.726 202.809 109.608 202.731 109.479 202.679C109.35 202.626 109.212 202.6 109.072 202.601H89.3057C89.0246 202.601 88.755 202.712 88.5554 202.91C88.3558 203.107 88.2424 203.376 88.24 203.657Z" fill="#006E9E"/>
<path d="M104.457 211.021C104.457 210.035 104.165 209.072 103.617 208.252C103.069 207.433 102.29 206.794 101.379 206.417C100.468 206.04 99.4659 205.941 98.4988 206.133C97.5317 206.325 96.6433 206.8 95.9461 207.497C95.2488 208.194 94.774 209.082 94.5816 210.049C94.3893 211.015 94.488 212.017 94.8653 212.928C95.2427 213.839 95.8817 214.617 96.7016 215.164C97.5215 215.712 98.4854 216.004 99.4715 216.004C100.794 216.004 102.062 215.479 102.997 214.545C103.932 213.61 104.457 212.343 104.457 211.021Z" fill="#CBECF7"/>
<path d="M99.4714 217.088C104.299 217.088 108.219 220.182 108.219 224.008H90.7327C90.7327 220.182 94.6526 217.088 99.4714 217.088Z" fill="#CBECF7"/>
<path d="M140.357 286.487H106.273C105.782 286.487 105.31 286.682 104.963 287.029C104.615 287.377 104.42 287.848 104.42 288.339V324.354C104.42 324.845 104.615 325.317 104.963 325.664C105.31 326.011 105.782 326.207 106.273 326.207H140.357C140.849 326.207 141.32 326.011 141.668 325.664C142.015 325.317 142.211 324.845 142.211 324.354V288.321C142.206 287.833 142.008 287.366 141.661 287.023C141.314 286.679 140.846 286.487 140.357 286.487Z" fill="#16AADB"/>
<path d="M122.824 309.598C124.523 309.598 126.184 309.094 127.597 308.151C129.009 307.207 130.11 305.866 130.761 304.297C131.411 302.728 131.581 301.002 131.25 299.336C130.918 297.67 130.1 296.14 128.898 294.939C127.697 293.738 126.166 292.921 124.5 292.589C122.834 292.258 121.106 292.428 119.537 293.078C117.967 293.728 116.625 294.828 115.681 296.241C114.737 297.653 114.234 299.313 114.234 301.011C114.236 303.288 115.142 305.47 116.752 307.08C118.363 308.69 120.547 309.596 122.824 309.598Z" fill="#CBECF7"/>
<path d="M122.824 311.469C114.484 311.469 107.756 316.814 107.756 323.4H137.892C137.892 316.795 131.146 311.469 122.824 311.469Z" fill="#CBECF7"/>
<path d="M86.3957 289.006H52.3119C51.8203 289.006 51.3489 289.202 51.0013 289.549C50.6538 289.896 50.4585 290.368 50.4585 290.859V326.874C50.4585 327.365 50.6538 327.836 51.0013 328.184C51.3489 328.531 51.8203 328.726 52.3119 328.726H86.3957C86.8873 328.726 87.3587 328.531 87.7063 328.184C88.0539 327.836 88.2491 327.365 88.2491 326.874V290.859C88.2491 290.368 88.0539 289.896 87.7063 289.549C87.3587 289.202 86.8873 289.006 86.3957 289.006Z" fill="#000643"/>
<path d="M68.8626 312.164C70.5593 312.156 72.2158 311.647 73.6232 310.7C75.0306 309.753 76.1259 308.41 76.7709 306.842C77.416 305.273 77.5819 303.549 77.2478 301.886C76.9136 300.223 76.0944 298.697 74.8934 297.499C73.6924 296.301 72.1634 295.485 70.4992 295.155C68.8351 294.824 67.1103 294.994 65.5425 295.642C63.9746 296.29 62.6339 297.388 61.6893 298.797C60.7448 300.206 60.2388 301.863 60.2351 303.558C60.2339 304.69 60.4563 305.812 60.8897 306.857C61.3231 307.903 61.9588 308.853 62.7605 309.653C63.5621 310.452 64.5138 311.086 65.561 311.517C66.6082 311.948 67.7302 312.167 68.8626 312.164Z" fill="#16AADB"/>
<path d="M68.8627 314.017C60.5225 314.017 53.7947 319.352 53.7947 325.947H83.9308C83.9308 319.352 77.1845 314.017 68.8627 314.017Z" fill="#16AADB"/>
<path d="M108.979 229.019H74.8954C74.4038 229.019 73.9324 229.214 73.5848 229.562C73.2373 229.909 73.042 230.38 73.042 230.872V266.868C73.042 267.359 73.2373 267.83 73.5848 268.178C73.9324 268.525 74.4038 268.72 74.8954 268.72H108.979C109.471 268.72 109.942 268.525 110.29 268.178C110.637 267.83 110.833 267.359 110.833 266.868V230.844C110.825 230.357 110.627 229.893 110.28 229.552C109.933 229.21 109.466 229.019 108.979 229.019Z" fill="#CBECF7"/>
<path d="M91.4462 252.13C93.1444 252.128 94.804 251.623 96.2153 250.679C97.6266 249.735 98.7262 248.394 99.3752 246.825C100.024 245.256 100.194 243.531 99.8618 241.866C99.5301 240.201 98.7121 238.672 97.5113 237.472C96.3104 236.271 94.7806 235.454 93.1151 235.122C91.4496 234.79 89.7231 234.96 88.1538 235.608C86.5844 236.257 85.2427 237.356 84.2981 238.767C83.3534 240.178 82.8483 241.837 82.8464 243.534C82.8464 245.814 83.7525 248 85.3652 249.612C86.978 251.225 89.1654 252.13 91.4462 252.13Z" fill="#16AADB"/>
<path d="M91.4462 254.001C83.106 254.001 76.3782 259.337 76.3782 265.923H106.505C106.505 259.365 99.768 254.001 91.4462 254.001Z" fill="#16AADB"/>
<path d="M136.65 240.199H102.567C102.075 240.199 101.604 240.395 101.256 240.742C100.908 241.09 100.713 241.561 100.713 242.052V278.067C100.713 278.558 100.908 279.029 101.256 279.377C101.604 279.724 102.075 279.919 102.567 279.919H136.65C137.142 279.919 137.613 279.724 137.961 279.377C138.308 279.029 138.504 278.558 138.504 278.067V242.024C138.496 241.538 138.298 241.074 137.951 240.732C137.604 240.391 137.137 240.199 136.65 240.199Z" fill="#006E9E"/>
<path d="M119.117 263.301C120.816 263.301 122.477 262.798 123.89 261.854C125.303 260.911 126.404 259.57 127.054 258.001C127.704 256.431 127.874 254.705 127.543 253.039C127.211 251.374 126.393 249.844 125.192 248.643C123.99 247.442 122.46 246.624 120.793 246.293C119.127 245.961 117.4 246.131 115.83 246.781C114.26 247.431 112.919 248.532 111.975 249.944C111.031 251.356 110.527 253.016 110.527 254.715C110.529 256.991 111.435 259.174 113.046 260.784C114.656 262.393 116.84 263.299 119.117 263.301Z" fill="#CBECF7"/>
<path d="M119.117 265.173C110.777 265.173 104.049 270.517 104.049 277.103H134.185C134.185 270.48 127.439 265.173 119.117 265.173Z" fill="#CBECF7"/>
<path d="M125.613 157.805H91.5204C91.0288 157.805 90.5574 158 90.2098 158.348C89.8623 158.695 89.667 159.166 89.667 159.658V195.681C89.667 196.173 89.8623 196.644 90.2098 196.991C90.5574 197.339 91.0288 197.534 91.5204 197.534H125.613C126.105 197.534 126.576 197.339 126.924 196.991C127.272 196.644 127.467 196.173 127.467 195.681V159.63C127.46 159.143 127.261 158.679 126.914 158.338C126.568 157.996 126.1 157.805 125.613 157.805Z" fill="#16AADB"/>
<path d="M108.08 180.916C109.779 180.914 111.438 180.409 112.85 179.465C114.261 178.521 115.36 177.18 116.009 175.611C116.659 174.042 116.828 172.317 116.496 170.652C116.164 168.987 115.346 167.458 114.146 166.257C112.945 165.057 111.415 164.24 109.749 163.908C108.084 163.576 106.357 163.746 104.788 164.394C103.219 165.043 101.877 166.142 100.932 167.553C99.9877 168.964 99.4825 170.622 99.4807 172.32C99.4807 174.6 100.387 176.786 102 178.398C103.612 180.01 105.8 180.916 108.08 180.916Z" fill="#CBECF7"/>
<path d="M108.071 182.787C99.731 182.787 93.0125 188.123 93.0125 194.709H123.139C123.139 188.123 116.393 182.787 108.071 182.787Z" fill="#CBECF7"/>
<path d="M77.3142 238.773H43.2303C42.7388 238.773 42.2674 238.968 41.9198 239.316C41.5722 239.663 41.377 240.134 41.377 240.626V276.64C41.377 277.132 41.5722 277.603 41.9198 277.95C42.2674 278.298 42.7388 278.493 43.2303 278.493H77.3142C77.8057 278.493 78.2771 278.298 78.6247 277.95C78.9723 277.603 79.1676 277.132 79.1676 276.64V240.607C79.1627 240.119 78.9653 239.652 78.6182 239.309C78.2712 238.966 77.8025 238.773 77.3142 238.773Z" fill="#16AADB"/>
<path d="M59.7811 261.884C61.4802 261.884 63.141 261.38 64.5537 260.437C65.9664 259.493 67.0675 258.152 67.7177 256.583C68.3679 255.014 68.538 253.288 68.2065 251.622C67.8751 249.956 67.0569 248.426 65.8555 247.225C64.6541 246.025 63.1234 245.207 61.457 244.875C59.7907 244.544 58.0634 244.714 56.4937 245.364C54.924 246.014 53.5824 247.115 52.6384 248.527C51.6945 249.939 51.1907 251.599 51.1907 253.297C51.1931 255.574 52.099 257.757 53.7095 259.366C55.32 260.976 57.5036 261.882 59.7811 261.884Z" fill="#CBECF7"/>
<path d="M59.7812 263.755C51.4409 263.755 44.7131 269.1 44.7131 275.686H74.8493C74.8493 269.1 68.1029 263.755 59.7812 263.755Z" fill="#CBECF7"/>
<path d="M137.151 181.092H103.058C102.566 181.092 102.095 181.287 101.747 181.635C101.4 181.982 101.204 182.453 101.204 182.945V218.959C101.204 219.451 101.4 219.922 101.747 220.269C102.095 220.617 102.566 220.812 103.058 220.812H137.151C137.642 220.812 138.114 220.617 138.461 220.269C138.809 219.922 139.004 219.451 139.004 218.959V182.917C138.997 182.43 138.798 181.966 138.452 181.625C138.105 181.283 137.638 181.092 137.151 181.092Z" fill="#000643"/>
<path d="M119.609 204.203C121.31 204.205 122.973 203.703 124.389 202.759C125.804 201.816 126.908 200.474 127.56 198.903C128.213 197.333 128.384 195.604 128.053 193.936C127.723 192.268 126.904 190.735 125.702 189.532C124.5 188.329 122.967 187.51 121.299 187.177C119.63 186.845 117.901 187.014 116.329 187.665C114.757 188.315 113.413 189.417 112.468 190.831C111.523 192.244 111.018 193.907 111.018 195.607C111.021 197.885 111.926 200.068 113.536 201.68C115.147 203.291 117.33 204.198 119.609 204.203Z" fill="#16AADB"/>
<path d="M119.609 206.065C111.268 206.065 104.541 211.41 104.541 217.996H134.677C134.677 211.41 127.93 206.065 119.609 206.065Z" fill="#16AADB"/>
<path d="M117.079 311.849H82.9947C82.5032 311.849 82.0318 312.044 81.6842 312.391C81.3366 312.739 81.1414 313.21 81.1414 313.701V349.725C81.1414 350.217 81.3366 350.688 81.6842 351.035C82.0318 351.383 82.5032 351.578 82.9947 351.578H117.079C117.57 351.578 118.042 351.383 118.389 351.035C118.737 350.688 118.932 350.217 118.932 349.725V313.674C118.925 313.187 118.726 312.723 118.379 312.382C118.033 312.04 117.565 311.849 117.079 311.849Z" fill="#CBECF7"/>
<path d="M99.5455 334.96C101.245 334.96 102.905 334.457 104.318 333.513C105.731 332.57 106.832 331.229 107.482 329.659C108.132 328.09 108.302 326.364 107.971 324.698C107.639 323.033 106.821 321.503 105.62 320.302C104.419 319.101 102.888 318.283 101.221 317.952C99.5551 317.62 97.8278 317.79 96.2581 318.44C94.6884 319.09 93.3468 320.191 92.4028 321.603C91.4589 323.015 90.9551 324.675 90.9551 326.373C90.9575 328.65 91.8634 330.833 93.4739 332.443C95.0844 334.052 97.268 334.958 99.5455 334.96Z" fill="#16AADB"/>
<path d="M99.5456 336.831C91.2053 336.831 84.4775 342.167 84.4775 348.762H114.614C114.614 342.167 107.867 336.831 99.5456 336.831Z" fill="#16AADB"/>
<path d="M69.5022 132.128H35.4462C34.9546 132.128 34.4832 132.323 34.1356 132.67C33.788 133.018 33.5928 133.489 33.5928 133.98V169.976C33.5928 170.468 33.788 170.939 34.1356 171.286C34.4832 171.634 34.9546 171.829 35.4462 171.829H69.5022C69.9938 171.829 70.4652 171.634 70.8128 171.286C71.1603 170.939 71.3556 170.468 71.3556 169.976V133.953C71.3483 133.466 71.1498 133.002 70.803 132.66C70.4562 132.319 69.989 132.128 69.5022 132.128Z" fill="#006E9E"/>
<path d="M51.997 155.239C53.6956 155.239 55.3561 154.736 56.7686 153.793C58.1811 152.849 59.2822 151.509 59.9326 149.94C60.5831 148.372 60.7537 146.646 60.423 144.98C60.0923 143.315 59.2751 141.785 58.0746 140.584C56.8741 139.382 55.3443 138.564 53.6786 138.232C52.0128 137.899 50.2858 138.068 48.7159 138.716C47.1461 139.365 45.8038 140.464 44.8588 141.875C43.9137 143.286 43.4083 144.945 43.4065 146.643C43.4089 148.92 44.3145 151.104 45.9247 152.715C47.535 154.327 49.7185 155.234 51.997 155.239Z" fill="#CBECF7"/>
<path d="M51.9968 157.11C43.6565 157.11 36.9287 162.446 36.9287 169.032H67.0648C67.0648 162.446 60.3185 157.11 51.9968 157.11Z" fill="#CBECF7"/>
<path d="M468.676 143.456H350.643V356.737H468.676V143.456Z" fill="#CBECF7"/>
<path d="M459.131 222.507H359.697V287.672H459.131V222.507Z" fill="#CBECF7" stroke="#16AADB" stroke-width="2" stroke-miterlimit="10"/>
<path d="M457.083 203.323L459.622 202.397L459.02 197.951L456.314 197.71C455.939 196.805 455.443 195.954 454.841 195.181L455.934 192.671L452.357 189.948L450.309 191.745C449.4 191.376 448.447 191.127 447.473 191.004L446.547 188.456L442.098 189.058L441.858 191.763C440.951 192.141 440.1 192.64 439.328 193.245L436.853 192.115L434.129 195.691L435.871 197.775C435.497 198.682 435.247 199.635 435.13 200.609L432.581 201.536L433.184 205.991L435.89 206.232C436.266 207.139 436.765 207.989 437.372 208.761L436.214 211.197L439.791 213.911L441.876 212.17C442.78 212.547 443.731 212.799 444.702 212.92L445.629 215.458L450.087 214.856L450.374 212.123C451.282 211.747 452.135 211.251 452.913 210.651L455.387 211.771L458.102 208.205L456.36 206.121C456.72 205.223 456.963 204.283 457.083 203.323ZM446.454 206.732C445.543 206.763 444.642 206.534 443.856 206.074C443.07 205.613 442.431 204.94 442.012 204.13C441.594 203.321 441.413 202.41 441.492 201.503C441.57 200.595 441.905 199.728 442.456 199.003C443.008 198.278 443.754 197.724 444.607 197.406C445.461 197.087 446.388 197.017 447.28 197.204C448.171 197.39 448.992 197.826 449.647 198.46C450.301 199.094 450.762 199.9 450.976 200.785C451.143 201.48 451.153 202.204 451.005 202.903C450.858 203.603 450.557 204.261 450.125 204.83C449.692 205.399 449.138 205.865 448.503 206.194C447.869 206.523 447.169 206.707 446.454 206.732Z" fill="white"/>
<path d="M446.565 163.103L449.938 161.204C450.117 161.098 450.263 160.943 450.357 160.757C450.452 160.571 450.491 160.362 450.472 160.155C450.453 159.947 450.375 159.749 450.247 159.584C450.12 159.419 449.949 159.294 449.753 159.222L434.75 153.961C434.556 153.894 434.347 153.883 434.148 153.929C433.948 153.975 433.765 154.076 433.62 154.221C433.475 154.366 433.374 154.549 433.328 154.748C433.282 154.948 433.293 155.157 433.36 155.35L438.623 170.384C438.692 170.583 438.816 170.757 438.982 170.887C439.147 171.017 439.346 171.096 439.555 171.116C439.764 171.135 439.975 171.094 440.161 170.997C440.348 170.9 440.502 170.752 440.606 170.569L442.506 167.198L448.437 173.126C448.536 173.231 448.655 173.314 448.787 173.371C448.919 173.429 449.062 173.458 449.206 173.458C449.35 173.458 449.493 173.429 449.625 173.371C449.757 173.314 449.877 173.231 449.975 173.126L452.533 170.569C452.738 170.358 452.853 170.076 452.853 169.782C452.853 169.488 452.738 169.206 452.533 168.995L446.565 163.103Z" fill="#000643"/>
<path d="M366.823 272.583L374.292 261.782C374.653 261.26 375.114 260.816 375.649 260.474C376.184 260.132 376.781 259.9 377.407 259.791C378.032 259.683 378.673 259.7 379.292 259.841C379.91 259.982 380.495 260.246 381.011 260.615L382.067 261.366C382.675 261.798 383.375 262.082 384.112 262.196C384.85 262.311 385.603 262.251 386.313 262.022C387.023 261.794 387.67 261.403 388.203 260.88C388.735 260.358 389.137 259.718 389.379 259.013L393.002 248.407C393.326 247.463 393.937 246.644 394.75 246.064C395.562 245.484 396.535 245.172 397.534 245.172C398.532 245.172 399.505 245.484 400.318 246.064C401.13 246.644 401.741 247.463 402.065 248.407L403.817 253.538C404.126 254.451 404.704 255.248 405.475 255.826C406.246 256.404 407.173 256.736 408.136 256.778C409.099 256.82 410.052 256.571 410.87 256.062C411.689 255.553 412.334 254.809 412.722 253.927L414.242 250.5C414.587 249.719 415.134 249.044 415.827 248.545C416.521 248.046 417.335 247.742 418.186 247.663C419.037 247.585 419.893 247.735 420.666 248.099C421.439 248.462 422.1 249.026 422.582 249.731C423.082 250.465 423.777 251.046 424.589 251.407C425.4 251.769 426.297 251.897 427.177 251.778C428.058 251.659 428.888 251.297 429.574 250.732C430.26 250.168 430.775 249.423 431.061 248.583L432.767 243.618C433.101 242.631 433.749 241.781 434.612 241.196C435.475 240.611 436.505 240.325 437.545 240.379C438.586 240.434 439.581 240.827 440.378 241.498C441.174 242.17 441.73 243.083 441.959 244.099L448.446 272.583C448.446 272.583 367.045 272.333 366.823 272.583Z" fill="#16AADB"/>
<path d="M366.823 272.583L374.292 261.782C374.653 261.26 375.114 260.816 375.649 260.474C376.184 260.132 376.781 259.9 377.407 259.791C378.032 259.683 378.673 259.7 379.292 259.841C379.91 259.982 380.495 260.246 381.011 260.615L382.067 261.366C382.675 261.798 383.375 262.082 384.112 262.196C384.85 262.311 385.603 262.251 386.313 262.022C387.023 261.794 387.67 261.403 388.203 260.88C388.735 260.358 389.137 259.718 389.379 259.013L393.002 248.407C393.326 247.463 393.937 246.644 394.75 246.064C395.562 245.484 396.535 245.172 397.534 245.172C398.532 245.172 399.505 245.484 400.318 246.064C401.13 246.644 401.741 247.463 402.065 248.407L403.817 253.538C404.126 254.451 404.704 255.248 405.475 255.826C406.246 256.404 407.173 256.736 408.136 256.778C409.099 256.82 410.052 256.571 410.87 256.062C411.689 255.553 412.334 254.809 412.722 253.927L414.242 250.5C414.587 249.719 415.134 249.044 415.827 248.545C416.521 248.046 417.335 247.742 418.186 247.663C419.037 247.585 419.893 247.735 420.666 248.099C421.439 248.462 422.1 249.026 422.582 249.731C423.082 250.465 423.777 251.046 424.589 251.407C425.4 251.769 426.297 251.897 427.177 251.778C428.058 251.659 428.888 251.297 429.574 250.732C430.26 250.168 430.775 249.423 431.061 248.583L432.767 243.618C433.101 242.631 433.749 241.781 434.612 241.196C435.475 240.611 436.505 240.325 437.545 240.379C438.586 240.434 439.581 240.827 440.378 241.498C441.174 242.17 441.73 243.083 441.959 244.099L448.446 272.583C448.446 272.583 367.045 272.333 366.823 272.583Z" fill="#000643"/>
<path d="M366.61 272.87L372.68 255.113C372.97 254.179 373.549 253.361 374.334 252.776C375.118 252.191 376.067 251.869 377.046 251.857C378.024 251.845 378.981 252.142 379.78 252.707C380.579 253.272 381.179 254.075 381.493 255.002L384.402 262.866C384.678 263.651 385.16 264.347 385.797 264.881C386.434 265.415 387.204 265.768 388.025 265.903C388.846 266.037 389.688 265.949 390.462 265.646C391.237 265.343 391.916 264.837 392.428 264.181L394.772 261.217C395.52 260.271 396.607 259.654 397.803 259.497C398.998 259.339 400.208 259.654 401.176 260.374L406.662 264.385C407.464 264.987 408.439 265.312 409.442 265.312H416.429C417.432 265.312 418.407 265.637 419.209 266.238L424.408 270.036C424.911 270.411 425.485 270.68 426.096 270.826C426.706 270.973 427.34 270.994 427.958 270.888C428.577 270.783 429.168 270.553 429.695 270.212C430.222 269.871 430.674 269.426 431.024 268.906L435.908 261.773C435.964 261.68 436.029 261.597 436.093 261.504C436.561 260.943 437.162 260.507 437.841 260.237C438.52 259.967 439.256 259.871 439.981 259.957C440.707 260.044 441.399 260.31 441.996 260.733C442.592 261.155 443.073 261.72 443.396 262.375L448.613 272.713C448.613 272.713 366.61 272.527 366.61 272.87Z" fill="#16AADB"/>
<path d="M448.52 272.694L442.182 267.535C433.48 261.134 429.347 273.315 422.508 264.181L420.182 261.217C419.434 260.271 418.347 259.654 417.151 259.497C415.956 259.339 414.746 259.654 413.779 260.374L411.054 262.375C408.457 264.269 405.326 265.29 402.112 265.293H398.553C397.551 265.296 396.577 265.621 395.773 266.219L390.574 270.017C388.443 271.573 386.96 271.786 383.55 268.924C383.55 268.924 379.843 265.914 379.76 265.812C377.906 263.598 374.153 263.598 372.513 265.812C372.125 266.33 371.71 266.827 371.271 267.303L366.369 272.694C366.369 272.694 448.52 272.333 448.52 272.694Z" fill="#16AADB"/>
<path d="M448.52 272.694L442.182 267.535C433.48 261.134 429.347 273.315 422.508 264.181L420.182 261.217C419.434 260.271 418.347 259.654 417.151 259.497C415.956 259.339 414.746 259.654 413.779 260.374L411.054 262.375C408.457 264.269 405.326 265.29 402.112 265.293H398.553C397.551 265.296 396.577 265.621 395.773 266.219L390.574 270.017C388.443 271.573 386.96 271.786 383.55 268.924C383.55 268.924 379.843 265.914 379.76 265.812C377.906 263.598 374.153 263.598 372.513 265.812C372.125 266.33 371.71 266.827 371.271 267.303L366.369 272.694C366.369 272.694 448.52 272.333 448.52 272.694Z" fill="white"/>
<path d="M374.756 230.594H372.541V232.808H374.756V230.594Z" fill="#16AADB"/>
<path d="M399.22 230.594H397.005V232.808H399.22V230.594Z" fill="#16AADB"/>
<path d="M423.685 230.594H421.47V232.808H423.685V230.594Z" fill="#16AADB"/>
<path d="M457.185 321.186H361.735C361.276 321.186 360.835 321.004 360.51 320.679C360.185 320.354 360.002 319.913 360.002 319.454C360.002 318.994 360.185 318.554 360.51 318.229C360.835 317.904 361.276 317.722 361.735 317.722H457.185C457.645 317.722 458.085 317.904 458.41 318.229C458.735 318.554 458.918 318.994 458.918 319.454C458.918 319.913 458.735 320.354 458.41 320.679C458.085 321.004 457.645 321.186 457.185 321.186Z" fill="white"/>
<path d="M457.185 307.468H361.735C361.276 307.468 360.835 307.285 360.51 306.96C360.185 306.635 360.002 306.195 360.002 305.735C360.002 305.276 360.185 304.835 360.51 304.511C360.835 304.186 361.276 304.003 361.735 304.003H457.185C457.645 304.003 458.085 304.186 458.41 304.511C458.735 304.835 458.918 305.276 458.918 305.735C458.918 306.195 458.735 306.635 458.41 306.96C458.085 307.285 457.645 307.468 457.185 307.468Z" fill="white"/>
<path d="M417.791 321.186H361.735C361.276 321.186 360.835 321.004 360.51 320.679C360.185 320.354 360.002 319.913 360.002 319.454C360.002 318.994 360.185 318.554 360.51 318.229C360.835 317.904 361.276 317.722 361.735 317.722H417.791C418.251 317.722 418.692 317.904 419.016 318.229C419.341 318.554 419.524 318.994 419.524 319.454C419.524 319.913 419.341 320.354 419.016 320.679C418.692 321.004 418.251 321.186 417.791 321.186Z" fill="#000643"/>
<path d="M457.185 333.895H361.735C361.276 333.895 360.835 333.713 360.51 333.388C360.185 333.063 360.002 332.622 360.002 332.163C360.002 331.703 360.185 331.263 360.51 330.938C360.835 330.613 361.276 330.431 361.735 330.431H457.185C457.645 330.431 458.085 330.613 458.41 330.938C458.735 331.263 458.918 331.703 458.918 332.163C458.918 332.622 458.735 333.063 458.41 333.388C458.085 333.713 457.645 333.895 457.185 333.895Z" fill="white"/>
<path d="M433.1 333.895H361.847C361.606 333.927 361.361 333.905 361.13 333.831C360.899 333.757 360.687 333.633 360.51 333.467C360.332 333.302 360.194 333.099 360.105 332.873C360.016 332.647 359.977 332.405 359.993 332.163C359.993 331.236 360.54 330.431 361.216 330.431H432.479C432.724 330.412 432.971 330.442 433.204 330.519C433.437 330.596 433.653 330.719 433.838 330.88C434.024 331.041 434.175 331.237 434.284 331.458C434.393 331.678 434.456 331.918 434.472 332.163C434.479 332.565 434.346 332.958 434.096 333.274C433.846 333.59 433.494 333.809 433.1 333.895Z" fill="#000643"/>
<path d="M457.185 346.298H361.735C361.276 346.298 360.835 346.116 360.51 345.791C360.185 345.466 360.002 345.025 360.002 344.566C360.002 344.107 360.185 343.666 360.51 343.341C360.835 343.016 361.276 342.834 361.735 342.834H457.185C457.645 342.834 458.085 343.016 458.41 343.341C458.735 343.666 458.918 344.107 458.918 344.566C458.918 345.025 458.735 345.466 458.41 345.791C458.085 346.116 457.645 346.298 457.185 346.298Z" fill="white"/>
<path d="M409.423 346.298H361.735C361.276 346.298 360.835 346.116 360.51 345.791C360.185 345.466 360.002 345.025 360.002 344.566C360.002 344.107 360.185 343.666 360.51 343.341C360.835 343.016 361.276 342.834 361.735 342.834H409.423C409.883 342.834 410.323 343.016 410.648 343.341C410.973 343.666 411.156 344.107 411.156 344.566C411.156 345.025 410.973 345.466 410.648 345.791C410.323 346.116 409.883 346.298 409.423 346.298Z" fill="#000643"/>
<path d="M439.652 307.468H361.735C361.276 307.468 360.835 307.285 360.51 306.96C360.185 306.635 360.002 306.195 360.002 305.735C360.002 305.276 360.185 304.835 360.51 304.511C360.835 304.186 361.276 304.003 361.735 304.003H439.652C440.111 304.003 440.552 304.186 440.877 304.511C441.202 304.835 441.385 305.276 441.385 305.735C441.385 306.195 441.202 306.635 440.877 306.96C440.552 307.285 440.111 307.468 439.652 307.468Z" fill="#16AADB"/>
<path d="M390.704 153.896V169.643C394.635 169.65 398.408 171.197 401.211 173.952C404.014 176.707 405.625 180.451 405.698 184.381H421.452C421.369 176.278 418.095 168.534 412.339 162.828C406.584 157.122 398.81 153.913 390.704 153.896Z" fill="white"/>
<path d="M421.47 184.686C421.47 184.603 421.47 184.51 421.47 184.417H405.716V184.686C405.721 187.307 405.039 189.883 403.738 192.158C402.438 194.433 400.564 196.328 398.303 197.654C401.083 202.175 403.687 206.732 406.532 211.114C411.093 208.373 414.866 204.498 417.484 199.867C420.102 195.236 421.475 190.006 421.47 184.686Z" fill="#006E9E"/>
<path d="M398.256 197.617C395.958 198.966 393.341 199.675 390.676 199.674C386.716 199.666 382.919 198.097 380.111 195.305C377.303 192.514 375.711 188.728 375.682 184.769C375.677 184.733 375.677 184.695 375.682 184.658C375.683 183.016 375.955 181.386 376.488 179.832C371.54 178.072 366.517 176.498 361.541 174.793C360.459 177.967 359.905 181.296 359.9 184.649C359.9 184.649 359.9 184.723 359.9 184.76C359.932 192.901 363.186 200.698 368.951 206.448C374.715 212.198 382.523 215.434 390.667 215.449C396.239 215.451 401.706 213.94 406.485 211.076C403.64 206.695 401.073 202.138 398.256 197.617Z" fill="#01284D"/>
<path d="M390.695 169.671V153.924C384.259 153.929 377.985 155.946 372.754 159.694C367.523 163.441 363.595 168.731 361.522 174.821C366.499 176.525 371.521 178.1 376.47 179.86C377.479 176.889 379.393 174.309 381.944 172.481C384.496 170.653 387.556 169.671 390.695 169.671Z" fill="#16AADB"/>
<path d="M390.704 184.844C391.745 184.844 392.762 184.535 393.628 183.957C394.494 183.379 395.168 182.557 395.567 181.596C395.965 180.634 396.069 179.576 395.866 178.556C395.663 177.535 395.162 176.598 394.426 175.862C393.69 175.126 392.752 174.625 391.731 174.422C390.71 174.219 389.651 174.323 388.69 174.721C387.728 175.12 386.906 175.794 386.327 176.659C385.749 177.524 385.44 178.542 385.44 179.582C385.443 180.977 385.998 182.314 386.985 183.3C387.971 184.286 389.309 184.841 390.704 184.844Z" fill="#16AADB"/>
<path d="M390.704 185.983C385.607 185.983 381.483 189.253 381.483 193.282H399.925C399.925 189.253 395.801 185.983 390.704 185.983Z" fill="#16AADB"/>
<path d="M528.374 400.978L531.766 410.352L521.22 410.528L528.374 400.978Z" fill="#006E9E"/>
<path d="M521.349 194.125L531.626 183.853" stroke="#01284D" stroke-width="2" stroke-linecap="round" stroke-linejoin="round"/>
<path d="M531.626 194.125L521.349 183.853" stroke="#01284D" stroke-width="2" stroke-linecap="round" stroke-linejoin="round"/>
<path d="M131.989 27.6315C135.288 24.3339 138.587 21.0363 144.092 22.1386C149.596 23.2409 152.886 27.6315 157.288 30.9292C162.793 35.3291 170.484 33.1338 175.989 27.6315" stroke="#16AADB" stroke-width="2" stroke-linecap="round" stroke-linejoin="round"/>
<path d="M131.989 36.7834C135.288 33.4858 138.587 30.1881 144.092 31.2904C149.596 32.3927 152.886 36.7834 157.288 40.081C162.793 44.481 170.484 42.2856 175.989 36.7834" stroke="#16AADB" stroke-width="2" stroke-linecap="round" stroke-linejoin="round"/>
<path d="M550.058 286.691L568.073 271.601" stroke="#16AADB" stroke-width="2" stroke-linecap="round" stroke-linejoin="round"/>
<path d="M65.6934 37.6911L77.4624 29.623L80.4278 43.5824L65.6934 37.6911Z" fill="#006E9E"/>
</g>
<defs>
<clipPath id="clip0">
<rect width="569" height="433" fill="white"/>
</clipPath>
</defs>
</svg>
