<?xml version="1.0" encoding="UTF-8"?>
<svg xmlns="http://www.w3.org/2000/svg" xmlns:xlink="http://www.w3.org/1999/xlink" width="80px" height="79px" viewBox="0 0 80 79" version="1.1">
<g id="surface1">
<path style=" stroke:none;fill-rule:nonzero;fill:rgb(100%,100%,100%);fill-opacity:1;" d="M 77.613281 41.183594 C 77.625 34.8125 73.640625 29.125 67.664062 26.96875 C 67.921875 25.613281 68.050781 24.238281 68.050781 22.855469 C 68.050781 10.886719 58.363281 1.195312 46.472656 1.195312 C 39.5 1.195312 33.039062 4.53125 28.96875 10.164062 C 26.964844 8.609375 24.496094 7.765625 21.960938 7.769531 C 15.632812 7.769531 10.496094 12.917969 10.496094 19.261719 C 10.496094 20.65625 10.753906 22.015625 11.210938 23.277344 C 5.21875 25.449219 1.222656 31.140625 1.195312 37.527344 C 1.183594 43.914062 5.175781 49.617188 11.171875 51.773438 C 10.914062 53.128906 10.785156 54.507812 10.785156 55.886719 C 10.796875 67.808594 20.4375 77.46875 32.328125 77.480469 C 39.300781 77.480469 45.765625 74.113281 49.804688 68.480469 C 51.808594 70.066406 54.257812 70.941406 56.8125 70.941406 C 63.140625 70.941406 68.273438 65.796875 68.273438 59.449219 C 68.273438 58.058594 68.015625 56.699219 67.5625 55.4375 C 73.5625 53.265625 77.574219 47.578125 77.613281 41.183594 "/>
<path style=" stroke:none;fill-rule:nonzero;fill:rgb(99.607843%,81.960784%,3.921569%);fill-opacity:1;" d="M 31.230469 34.0625 L 47.960938 41.703125 L 64.820312 26.875 C 65.070312 25.648438 65.191406 24.402344 65.175781 23.152344 C 65.164062 12.714844 56.726562 4.257812 46.3125 4.242188 C 40.101562 4.246094 34.289062 7.324219 30.78125 12.464844 L 27.96875 27.066406 Z M 31.230469 34.0625 "/>
<path style=" stroke:none;fill-rule:nonzero;fill:rgb(14.117647%,73.333333%,69.411765%);fill-opacity:1;" d="M 13.921875 51.804688 C 13.671875 53.050781 13.550781 54.320312 13.5625 55.59375 C 13.5625 66.054688 22.058594 74.53125 32.492188 74.53125 C 38.75 74.53125 44.601562 71.429688 48.125 66.246094 L 50.902344 51.707031 L 47.1875 44.585938 L 30.394531 36.914062 Z M 13.921875 51.804688 "/>
<path style=" stroke:none;fill-rule:nonzero;fill:rgb(93.72549%,31.372549%,59.607843%);fill-opacity:1;" d="M 13.820312 22.796875 L 25.285156 25.515625 L 27.804688 12.46875 C 26.25 11.273438 24.316406 10.625 22.3125 10.625 C 17.324219 10.632812 13.28125 14.683594 13.273438 19.683594 C 13.273438 20.746094 13.457031 21.796875 13.820312 22.792969 "/>
<path style=" stroke:none;fill-rule:nonzero;fill:rgb(9.019608%,65.882353%,87.843137%);fill-opacity:1;" d="M 12.824219 25.546875 C 7.71875 27.230469 4.136719 32.152344 4.136719 37.558594 C 4.136719 42.835938 7.398438 47.53125 12.273438 49.410156 L 28.359375 34.839844 L 25.421875 28.527344 Z M 12.824219 25.546875 "/>
<path style=" stroke:none;fill-rule:nonzero;fill:rgb(57.647059%,78.431373%,24.313725%);fill-opacity:1;" d="M 51.03125 66.246094 C 52.601562 67.453125 54.515625 68.109375 56.492188 68.125 C 61.484375 68.121094 65.53125 64.0625 65.535156 59.058594 C 65.539062 57.988281 65.351562 56.925781 64.984375 55.917969 L 53.550781 53.230469 Z M 51.03125 66.246094 "/>
<path style=" stroke:none;fill-rule:nonzero;fill:rgb(2.745098%,47.45098%,63.137255%);fill-opacity:1;" d="M 53.355469 50.21875 L 65.953125 53.164062 C 71.125 51.425781 74.617188 46.582031 74.640625 41.117188 C 74.632812 35.867188 71.398438 31.167969 66.503906 29.300781 L 50.03125 43.773438 Z M 53.355469 50.21875 "/>
</g>
</svg>
