<?xml version="1.0" encoding="UTF-8"?>
<svg xmlns="http://www.w3.org/2000/svg" xmlns:xlink="http://www.w3.org/1999/xlink" width="80px" height="40px" viewBox="0 0 40 40" version="1.1">
<g id="surface1">
<path style=" stroke:none;fill-rule:nonzero;fill:rgb(72.941176%,87.45098%,57.647059%);fill-opacity:1;" d="M 17.769531 4.898438 L 38.398438 4.898438 L 38.398438 35.15625 L 17.769531 35.15625 Z M 17.769531 4.898438 "/>
<path style=" stroke:none;fill-rule:nonzero;fill:rgb(72.941176%,87.45098%,57.647059%);fill-opacity:1;" d="M 17.769531 4.898438 L 38.398438 4.898438 L 38.398438 35.15625 L 17.769531 35.15625 Z M 17.769531 4.898438 "/>
<path style=" stroke:none;fill-rule:nonzero;fill:rgb(29.803922%,61.176471%,18.039216%);fill-opacity:1;" d="M 38.398438 36.753906 L 17.769531 36.753906 C 16.882812 36.753906 16.167969 36.039062 16.167969 35.15625 L 16.167969 4.898438 C 16.167969 4.011719 16.882812 3.296875 17.769531 3.296875 L 38.398438 3.296875 C 39.285156 3.296875 40 4.011719 40 4.898438 L 40 35.15625 C 40 36.039062 39.285156 36.753906 38.398438 36.753906 Z M 19.367188 33.554688 L 36.800781 33.554688 L 36.800781 6.496094 L 19.367188 6.496094 Z M 19.367188 33.554688 "/>
<path style=" stroke:none;fill-rule:nonzero;fill:rgb(29.803922%,61.176471%,18.039216%);fill-opacity:1;" d="M 38.398438 36.753906 L 17.769531 36.753906 C 16.882812 36.753906 16.167969 36.039062 16.167969 35.15625 L 16.167969 4.898438 C 16.167969 4.011719 16.882812 3.296875 17.769531 3.296875 L 38.398438 3.296875 C 39.285156 3.296875 40 4.011719 40 4.898438 L 40 35.15625 C 40 36.039062 39.285156 36.753906 38.398438 36.753906 Z M 19.367188 33.554688 L 36.800781 33.554688 L 36.800781 6.496094 L 19.367188 6.496094 Z M 19.367188 33.554688 "/>
<path style=" stroke:none;fill-rule:nonzero;fill:rgb(23.921569%,68.235294%,16.862745%);fill-opacity:1;" d="M 33.582031 15.175781 L 29.386719 15.175781 C 28.503906 15.175781 27.785156 14.457031 27.785156 13.574219 C 27.785156 12.691406 28.503906 11.972656 29.386719 11.972656 L 33.582031 11.972656 C 34.464844 11.972656 35.179688 12.691406 35.179688 13.574219 C 35.179688 14.457031 34.464844 15.175781 33.582031 15.175781 Z M 33.582031 15.175781 "/>
<path style=" stroke:none;fill-rule:nonzero;fill:rgb(23.921569%,68.235294%,16.862745%);fill-opacity:1;" d="M 33.582031 21.625 L 29.386719 21.625 C 28.503906 21.625 27.785156 20.910156 27.785156 20.027344 C 27.785156 19.140625 28.503906 18.425781 29.386719 18.425781 L 33.582031 18.425781 C 34.464844 18.425781 35.179688 19.140625 35.179688 20.027344 C 35.179688 20.910156 34.464844 21.625 33.582031 21.625 Z M 33.582031 21.625 "/>
<path style=" stroke:none;fill-rule:nonzero;fill:rgb(23.921569%,68.235294%,16.862745%);fill-opacity:1;" d="M 33.582031 28.082031 L 29.386719 28.082031 C 28.503906 28.082031 27.785156 27.367188 27.785156 26.484375 C 27.785156 25.601562 28.503906 24.882812 29.386719 24.882812 L 33.582031 24.882812 C 34.464844 24.882812 35.179688 25.601562 35.179688 26.484375 C 35.179688 27.367188 34.464844 28.082031 33.582031 28.082031 Z M 33.582031 28.082031 "/>
<path style=" stroke:none;fill-rule:nonzero;fill:rgb(23.921569%,68.235294%,16.862745%);fill-opacity:1;" d="M 24.820312 15.175781 L 17.769531 15.175781 C 16.882812 15.175781 16.167969 14.457031 16.167969 13.574219 C 16.167969 12.691406 16.882812 11.972656 17.769531 11.972656 L 24.820312 11.972656 C 25.703125 11.972656 26.417969 12.691406 26.417969 13.574219 C 26.417969 14.457031 25.703125 15.175781 24.820312 15.175781 Z M 24.820312 15.175781 "/>
<path style=" stroke:none;fill-rule:nonzero;fill:rgb(23.921569%,68.235294%,16.862745%);fill-opacity:1;" d="M 24.820312 21.574219 L 17.769531 21.574219 C 16.882812 21.574219 16.167969 20.859375 16.167969 19.972656 C 16.167969 19.089844 16.882812 18.375 17.769531 18.375 L 24.820312 18.375 C 25.703125 18.375 26.417969 19.089844 26.417969 19.972656 C 26.417969 20.859375 25.703125 21.574219 24.820312 21.574219 Z M 24.820312 21.574219 "/>
<path style=" stroke:none;fill-rule:nonzero;fill:rgb(23.921569%,68.235294%,16.862745%);fill-opacity:1;" d="M 24.820312 27.972656 L 17.769531 27.972656 C 16.882812 27.972656 16.167969 27.257812 16.167969 26.375 C 16.167969 25.492188 16.882812 24.773438 17.769531 24.773438 L 24.820312 24.773438 C 25.703125 24.773438 26.417969 25.492188 26.417969 26.375 C 26.417969 27.257812 25.703125 27.972656 24.820312 27.972656 Z M 24.820312 27.972656 "/>
<path style=" stroke:none;fill-rule:nonzero;fill:rgb(66.666667%,85.490196%,56.862745%);fill-opacity:1;" d="M 21.214844 37.472656 L 2.59375 34.386719 C 2.019531 34.289062 1.601562 33.792969 1.601562 33.214844 L 1.601562 6.785156 C 1.601562 6.207031 2.019531 5.710938 2.59375 5.613281 L 21.207031 2.527344 C 21.933594 2.40625 22.59375 2.96875 22.59375 3.703125 L 22.59375 36.296875 C 22.59375 37.03125 21.933594 37.59375 21.214844 37.472656 Z M 21.214844 37.472656 "/>
<path style=" stroke:none;fill-rule:nonzero;fill:rgb(29.803922%,61.176471%,18.039216%);fill-opacity:1;" d="M 22.59375 39.304688 C 22.507812 39.304688 22.417969 39.296875 22.328125 39.285156 L 1.335938 35.800781 C 0.566406 35.671875 0 35 0 34.21875 L 0 5.78125 C 0 5 0.566406 4.328125 1.335938 4.199219 L 22.328125 0.714844 C 22.800781 0.644531 23.269531 0.773438 23.632812 1.078125 C 23.992188 1.378906 24.199219 1.824219 24.199219 2.296875 L 24.199219 37.703125 C 24.199219 38.175781 23.992188 38.621094 23.632812 38.921875 C 23.34375 39.167969 22.972656 39.304688 22.59375 39.304688 Z M 3.199219 32.863281 L 20.992188 35.8125 L 20.992188 4.1875 L 3.199219 7.136719 Z M 3.199219 32.863281 "/>
<path style=" stroke:none;fill-rule:nonzero;fill:rgb(41.568627%,74.901961%,29.411765%);fill-opacity:1;" d="M 1.601562 21.160156 C 0.714844 21.160156 0 20.445312 0 19.5625 L 0 5.78125 C 0 5 0.566406 4.328125 1.335938 4.199219 L 11.832031 2.457031 C 12.703125 2.316406 13.527344 2.902344 13.671875 3.773438 C 13.8125 4.644531 13.226562 5.472656 12.355469 5.613281 L 3.195312 7.128906 L 3.195312 19.554688 C 3.199219 20.445312 2.484375 21.160156 1.601562 21.160156 Z M 1.601562 21.160156 "/>
<path style=" stroke:none;fill-rule:nonzero;fill:rgb(29.803922%,61.176471%,18.039216%);fill-opacity:1;" d="M 13.8125 20.011719 L 16.011719 23.167969 C 16.644531 24.078125 15.992188 25.316406 14.890625 25.316406 L 14.871094 25.316406 C 14.414062 25.316406 13.988281 25.089844 13.734375 24.710938 L 12.109375 22.277344 L 10.484375 24.710938 C 10.230469 25.089844 9.800781 25.316406 9.347656 25.316406 L 9.324219 25.316406 C 8.214844 25.316406 7.566406 24.070312 8.199219 23.160156 L 10.40625 20.007812 L 8.199219 16.898438 C 7.554688 15.992188 8.207031 14.734375 9.316406 14.734375 C 9.769531 14.734375 10.1875 14.953125 10.445312 15.328125 L 12.109375 17.753906 L 13.773438 15.328125 C 14.03125 14.953125 14.453125 14.734375 14.902344 14.734375 C 16.011719 14.734375 16.664062 15.988281 16.019531 16.898438 Z M 13.8125 20.011719 "/>
</g>
</svg>
