<?xml version="1.0" encoding="UTF-8"?>
<svg xmlns="http://www.w3.org/2000/svg" xmlns:xlink="http://www.w3.org/1999/xlink" width="80px" height="80px" viewBox="0 0 80 80" version="1.1">
<g id="surface1">
<path style="fill-rule:nonzero;fill:rgb(100%,98.431373%,80%);fill-opacity:1;stroke-width:1;stroke-linecap:round;stroke-linejoin:round;stroke:rgb(27.45098%,27.45098%,27.45098%);stroke-opacity:1;stroke-miterlimit:4;" d="M 5.5 13.5 L 18.5 13.5 L 18.5 22.5 L 5.5 22.5 Z M 5.5 13.5 " transform="matrix(1.25,0,0,1.25,0,0)"/>
<path style="fill-rule:nonzero;fill:rgb(100%,98.431373%,80%);fill-opacity:1;stroke-width:1;stroke-linecap:round;stroke-linejoin:round;stroke:rgb(27.45098%,27.45098%,27.45098%);stroke-opacity:1;stroke-miterlimit:4;" d="M 18.5 13.5 L 31.5 13.5 L 31.5 22.5 L 18.5 22.5 Z M 18.5 13.5 " transform="matrix(1.25,0,0,1.25,0,0)"/>
<path style="fill-rule:nonzero;fill:rgb(100%,98.431373%,80%);fill-opacity:1;stroke-width:1;stroke-linecap:round;stroke-linejoin:round;stroke:rgb(27.45098%,27.45098%,27.45098%);stroke-opacity:1;stroke-miterlimit:4;" d="M 31.5 13.5 L 44.5 13.5 L 44.5 22.5 L 31.5 22.5 Z M 31.5 13.5 " transform="matrix(1.25,0,0,1.25,0,0)"/>
<path style="fill-rule:nonzero;fill:rgb(100%,98.431373%,80%);fill-opacity:1;stroke-width:1;stroke-linecap:round;stroke-linejoin:round;stroke:rgb(27.45098%,27.45098%,27.45098%);stroke-opacity:1;stroke-miterlimit:4;" d="M 44.5 13.5 L 57.5 13.5 L 57.5 22.5 L 44.5 22.5 Z M 44.5 13.5 " transform="matrix(1.25,0,0,1.25,0,0)"/>
<path style="fill-rule:nonzero;fill:rgb(100%,100%,100%);fill-opacity:1;stroke-width:1;stroke-linecap:round;stroke-linejoin:round;stroke:rgb(27.45098%,27.45098%,27.45098%);stroke-opacity:1;stroke-miterlimit:4;" d="M 5.5 22.5 L 18.5 22.5 L 18.5 31.5 L 5.5 31.5 Z M 5.5 22.5 " transform="matrix(1.25,0,0,1.25,0,0)"/>
<path style="fill-rule:nonzero;fill:rgb(100%,100%,100%);fill-opacity:1;stroke-width:1;stroke-linecap:round;stroke-linejoin:round;stroke:rgb(27.45098%,27.45098%,27.45098%);stroke-opacity:1;stroke-miterlimit:4;" d="M 18.5 22.5 L 31.5 22.5 L 31.5 31.5 L 18.5 31.5 Z M 18.5 22.5 " transform="matrix(1.25,0,0,1.25,0,0)"/>
<path style="fill-rule:nonzero;fill:rgb(100%,100%,100%);fill-opacity:1;stroke-width:1;stroke-linecap:round;stroke-linejoin:round;stroke:rgb(27.45098%,27.45098%,27.45098%);stroke-opacity:1;stroke-miterlimit:4;" d="M 31.5 22.5 L 44.5 22.5 L 44.5 31.5 L 31.5 31.5 Z M 31.5 22.5 " transform="matrix(1.25,0,0,1.25,0,0)"/>
<path style="fill-rule:nonzero;fill:rgb(100%,100%,100%);fill-opacity:1;stroke-width:1;stroke-linecap:round;stroke-linejoin:round;stroke:rgb(27.45098%,27.45098%,27.45098%);stroke-opacity:1;stroke-miterlimit:4;" d="M 44.5 22.5 L 57.5 22.5 L 57.5 31.5 L 44.5 31.5 Z M 5.5 31.5 L 18.5 31.5 L 18.5 40.5 L 5.5 40.5 Z M 5.5 31.5 " transform="matrix(1.25,0,0,1.25,0,0)"/>
<path style="fill-rule:nonzero;fill:rgb(100%,100%,100%);fill-opacity:1;stroke-width:1;stroke-linecap:round;stroke-linejoin:round;stroke:rgb(27.45098%,27.45098%,27.45098%);stroke-opacity:1;stroke-miterlimit:4;" d="M 18.5 31.5 L 31.5 31.5 L 31.5 40.5 L 18.5 40.5 Z M 18.5 31.5 " transform="matrix(1.25,0,0,1.25,0,0)"/>
<path style="fill-rule:nonzero;fill:rgb(100%,100%,100%);fill-opacity:1;stroke-width:1;stroke-linecap:round;stroke-linejoin:round;stroke:rgb(27.45098%,27.45098%,27.45098%);stroke-opacity:1;stroke-miterlimit:4;" d="M 31.5 31.5 L 44.5 31.5 L 44.5 40.5 L 31.5 40.5 Z M 31.5 31.5 " transform="matrix(1.25,0,0,1.25,0,0)"/>
<path style="fill-rule:nonzero;fill:rgb(100%,100%,100%);fill-opacity:1;stroke-width:1;stroke-linecap:round;stroke-linejoin:round;stroke:rgb(27.45098%,27.45098%,27.45098%);stroke-opacity:1;stroke-miterlimit:4;" d="M 44.5 31.5 L 57.5 31.5 L 57.5 40.5 L 44.5 40.5 Z M 5.5 40.5 L 18.5 40.5 L 18.5 49.5 L 5.5 49.5 Z M 5.5 40.5 " transform="matrix(1.25,0,0,1.25,0,0)"/>
<path style="fill-rule:nonzero;fill:rgb(100%,100%,100%);fill-opacity:1;stroke-width:1;stroke-linecap:round;stroke-linejoin:round;stroke:rgb(27.45098%,27.45098%,27.45098%);stroke-opacity:1;stroke-miterlimit:4;" d="M 18.5 40.5 L 31.5 40.5 L 31.5 49.5 L 18.5 49.5 Z M 18.5 40.5 " transform="matrix(1.25,0,0,1.25,0,0)"/>
<path style="fill-rule:nonzero;fill:rgb(100%,100%,100%);fill-opacity:1;stroke-width:1;stroke-linecap:round;stroke-linejoin:round;stroke:rgb(27.45098%,27.45098%,27.45098%);stroke-opacity:1;stroke-miterlimit:4;" d="M 31.5 40.5 L 44.5 40.5 L 44.5 49.5 L 31.5 49.5 Z M 31.5 40.5 " transform="matrix(1.25,0,0,1.25,0,0)"/>
<path style="fill-rule:nonzero;fill:rgb(100%,100%,100%);fill-opacity:1;stroke-width:1;stroke-linecap:round;stroke-linejoin:round;stroke:rgb(27.45098%,27.45098%,27.45098%);stroke-opacity:1;stroke-miterlimit:4;" d="M 44.5 40.5 L 57.5 40.5 L 57.5 49.5 L 44.5 49.5 Z M 44.5 40.5 " transform="matrix(1.25,0,0,1.25,0,0)"/>
</g>
</svg>
