<?xml version="1.0" encoding="UTF-8"?>
<svg xmlns="http://www.w3.org/2000/svg" xmlns:xlink="http://www.w3.org/1999/xlink" width="80px" height="40px" viewBox="0 0 40 40" version="1.1">
<g id="surface1">
<path style="fill:none;stroke-width:10;stroke-linecap:butt;stroke-linejoin:round;stroke:rgb(0%,0%,0%);stroke-opacity:1;stroke-miterlimit:4;" d="M 464 144 L 464 448 L 144 448 L 144 232 L 307.2 232 C 312.6 232 317 227.6 317 222.2 L 317 141.8 C 317 136.4 312.6 132 307.2 132 L 144 132 L 144 64 L 368 64 L 368 128 C 368 136.85 375.15 144 384 144 Z M 464 144 " transform="matrix(0.078125,0,0,0.078125,0,0)"/>
<path style="fill:none;stroke-width:10;stroke-linecap:butt;stroke-linejoin:round;stroke:rgb(0%,0%,0%);stroke-opacity:1;stroke-miterlimit:4;" d="M 368 64 L 464 144 " transform="matrix(0.078125,0,0,0.078125,0,0)"/>
<path style="fill:none;stroke-width:10;stroke-linecap:butt;stroke-linejoin:round;stroke:rgb(0%,0%,0%);stroke-opacity:1;stroke-miterlimit:4;" d="M 46.8 132 L 307.2 132 C 312.6 132 317 136.4 317 141.8 L 317 222.2 C 317 227.6 312.6 232 307.2 232 L 46.8 232 C 41.4 232 37 227.6 37 222.2 L 37 141.8 C 37 136.4 41.4 132 46.8 132 Z M 46.8 132 " transform="matrix(0.078125,0,0,0.078125,0,0)"/>
<path style=" stroke:none;fill-rule:nonzero;fill:rgb(0%,0%,0%);fill-opacity:1;" d="M 8.09375 13.253906 L 8.09375 12.753906 L 9.6875 12.753906 L 9.6875 14.917969 C 9.6875 15.296875 9.589844 15.585938 9.398438 15.777344 C 9.199219 15.96875 8.929688 16.070312 8.652344 16.0625 C 8.285156 16.066406 7.933594 15.921875 7.675781 15.660156 L 7.988281 15.222656 C 8.203125 15.425781 8.410156 15.527344 8.613281 15.527344 C 8.75 15.53125 8.882812 15.476562 8.980469 15.382812 C 9.082031 15.285156 9.132812 15.140625 9.132812 14.945312 L 9.132812 13.253906 Z M 8.09375 13.253906 "/>
<path style=" stroke:none;fill-rule:nonzero;fill:rgb(0%,0%,0%);fill-opacity:1;" d="M 11.453125 13.1875 C 11.316406 13.179688 11.175781 13.214844 11.058594 13.285156 C 10.957031 13.347656 10.894531 13.460938 10.902344 13.582031 C 10.894531 13.703125 10.957031 13.820312 11.058594 13.886719 C 11.160156 13.957031 11.382812 14.035156 11.714844 14.113281 C 12.050781 14.195312 12.304688 14.308594 12.476562 14.457031 C 12.644531 14.605469 12.730469 14.820312 12.730469 15.105469 C 12.738281 15.375 12.617188 15.632812 12.40625 15.800781 C 12.191406 15.980469 11.910156 16.070312 11.558594 16.070312 C 11.054688 16.074219 10.566406 15.882812 10.195312 15.539062 L 10.542969 15.121094 C 10.875 15.410156 11.21875 15.554688 11.574219 15.554688 C 11.722656 15.5625 11.871094 15.523438 11.996094 15.4375 C 12.097656 15.371094 12.15625 15.253906 12.152344 15.132812 C 12.160156 15.015625 12.101562 14.90625 12.007812 14.839844 C 11.847656 14.746094 11.675781 14.679688 11.496094 14.648438 C 11.3125 14.605469 11.128906 14.554688 10.949219 14.492188 C 10.832031 14.445312 10.71875 14.378906 10.617188 14.296875 C 10.421875 14.148438 10.328125 13.925781 10.328125 13.621094 C 10.3125 13.347656 10.4375 13.082031 10.65625 12.917969 C 10.894531 12.75 11.183594 12.664062 11.476562 12.671875 C 11.6875 12.671875 11.898438 12.707031 12.101562 12.777344 C 12.292969 12.839844 12.476562 12.9375 12.632812 13.066406 L 12.339844 13.484375 C 12.226562 13.386719 12.09375 13.3125 11.949219 13.269531 C 11.789062 13.214844 11.621094 13.1875 11.453125 13.1875 Z M 11.453125 13.1875 "/>
<path style=" stroke:none;fill-rule:nonzero;fill:rgb(0%,0%,0%);fill-opacity:1;" d="M 16.054688 15.578125 C 15.363281 16.226562 14.289062 16.226562 13.597656 15.578125 C 12.929688 14.910156 12.929688 13.828125 13.597656 13.15625 C 14.289062 12.511719 15.363281 12.511719 16.054688 13.15625 C 16.71875 13.828125 16.71875 14.910156 16.054688 15.578125 Z M 15.648438 13.527344 C 15.429688 13.308594 15.132812 13.183594 14.824219 13.183594 C 14.515625 13.183594 14.21875 13.308594 14.003906 13.527344 C 13.554688 14 13.554688 14.738281 14.003906 15.210938 C 14.21875 15.433594 14.515625 15.558594 14.824219 15.558594 C 15.132812 15.558594 15.429688 15.433594 15.648438 15.210938 C 16.09375 14.738281 16.09375 14 15.648438 13.527344 Z M 15.648438 13.527344 "/>
<path style=" stroke:none;fill-rule:nonzero;fill:rgb(0%,0%,0%);fill-opacity:1;" d="M 19.613281 12.753906 L 20.167969 12.753906 L 20.167969 16.03125 L 19.566406 16.03125 L 17.710938 13.640625 L 17.710938 16.03125 L 17.160156 16.03125 L 17.160156 12.753906 L 17.710938 12.753906 L 19.613281 15.203125 Z M 19.613281 12.753906 "/>
<path style=" stroke:none;fill-rule:nonzero;fill:rgb(0%,0%,0%);fill-opacity:1;" d="M 20.390625 22.617188 C 19.886719 22.617188 19.632812 22.871094 19.632812 23.378906 L 19.632812 26.273438 C 19.632812 26.898438 19.363281 27.261719 18.828125 27.367188 C 19.363281 27.464844 19.632812 27.824219 19.632812 28.449219 L 19.632812 31.582031 C 19.632812 31.8125 19.691406 31.972656 19.808594 32.0625 C 19.929688 32.152344 20.15625 32.195312 20.488281 32.195312 L 20.488281 33.4375 L 20.078125 33.4375 C 18.96875 33.4375 18.417969 32.851562 18.417969 31.675781 L 18.417969 28.796875 C 18.417969 28.503906 18.367188 28.296875 18.269531 28.175781 C 18.171875 28.054688 18.015625 27.996094 17.804688 27.996094 L 17.511719 27.996094 L 17.511719 26.753906 L 17.804688 26.753906 C 18.015625 26.753906 18.171875 26.691406 18.269531 26.566406 C 18.367188 26.441406 18.414062 26.230469 18.417969 25.925781 L 18.417969 23.152344 C 18.417969 21.976562 18.96875 21.390625 20.078125 21.390625 L 20.492188 21.390625 L 20.492188 22.632812 C 20.460938 22.621094 20.425781 22.617188 20.390625 22.617188 Z M 20.390625 22.617188 "/>
<path style=" stroke:none;fill-rule:nonzero;fill:rgb(0%,0%,0%);fill-opacity:1;" d="M 25.527344 33.4375 L 25.109375 33.4375 L 25.109375 32.195312 C 25.445312 32.195312 25.671875 32.152344 25.789062 32.0625 C 25.90625 31.972656 25.964844 31.8125 25.964844 31.582031 L 25.964844 28.449219 C 25.964844 27.824219 26.234375 27.464844 26.773438 27.367188 C 26.234375 27.265625 25.964844 26.898438 25.964844 26.273438 L 25.964844 23.378906 C 25.964844 23.101562 25.898438 22.90625 25.765625 22.785156 C 25.660156 22.679688 25.519531 22.613281 25.367188 22.605469 L 25.332031 22.605469 L 25.109375 22.632812 L 25.109375 21.390625 L 25.527344 21.390625 C 26.632812 21.390625 27.1875 21.976562 27.1875 23.152344 L 27.1875 25.925781 C 27.1875 26.230469 27.238281 26.445312 27.335938 26.566406 C 27.433594 26.691406 27.585938 26.753906 27.800781 26.753906 L 28.09375 26.753906 L 28.09375 27.996094 L 27.800781 27.996094 C 27.585938 27.996094 27.433594 28.054688 27.335938 28.175781 C 27.238281 28.296875 27.1875 28.503906 27.1875 28.796875 L 27.1875 31.675781 C 27.1875 32.851562 26.632812 33.4375 25.527344 33.4375 Z M 25.527344 33.4375 "/>
<path style=" stroke:none;fill-rule:nonzero;fill:rgb(0%,0%,0%);fill-opacity:1;" d="M 23.777344 23.882812 C 23.777344 24.421875 23.339844 24.859375 22.800781 24.859375 C 22.261719 24.859375 21.824219 24.421875 21.824219 23.882812 C 21.824219 23.34375 22.261719 22.90625 22.800781 22.90625 C 23.339844 22.90625 23.777344 23.34375 23.777344 23.882812 Z M 23.777344 23.882812 "/>
<path style=" stroke:none;fill-rule:nonzero;fill:rgb(0%,0%,0%);fill-opacity:1;" d="M 22.796875 26.507812 L 22.808594 26.507812 C 23.0625 26.507812 23.269531 26.714844 23.269531 26.96875 L 23.269531 31.511719 C 23.269531 31.769531 23.0625 31.976562 22.808594 31.976562 L 22.796875 31.976562 C 22.539062 31.976562 22.332031 31.769531 22.332031 31.511719 L 22.332031 26.96875 C 22.332031 26.714844 22.539062 26.507812 22.796875 26.507812 Z M 22.796875 26.507812 "/>
</g>
</svg>
