<?xml version="1.0" encoding="UTF-8"?>
<svg xmlns="http://www.w3.org/2000/svg" xmlns:xlink="http://www.w3.org/1999/xlink" width="80px" height="80px" viewBox="0 0 80 80" version="1.1">
<g id="surface1">
<path style=" stroke:none;fill-rule:nonzero;fill:rgb(12.941176%,12.941176%,12.941176%);fill-opacity:1;" d="M 16 12 L 20 12 C 22.210938 12 24 13.789062 24 16 L 24 32 L 28 32 L 28 16 C 28 11.582031 24.417969 8 20 8 L 16 8 C 11.582031 8 8 11.582031 8 16 L 8 60 C 8 64.417969 11.582031 68 16 68 L 20 68 C 24.417969 68 28 64.417969 28 60 L 28 44 L 24 44 L 24 60 C 24 62.210938 22.210938 64 20 64 L 16 64 C 13.789062 64 12 62.210938 12 60 L 12 16 C 12 13.789062 13.789062 12 16 12 Z M 60 8 C 55.582031 8 52 11.582031 52 16 L 52 60 C 52 64.417969 55.582031 68 60 68 L 64 68 C 68.417969 68 72 64.417969 72 60 L 72 16 C 72 11.582031 68.417969 8 64 8 Z M 64 12 C 66.210938 12 68 13.789062 68 16 L 68 60 C 68 62.210938 66.210938 64 64 64 L 60 64 C 57.789062 64 56 62.210938 56 60 L 56 16 C 56 13.789062 57.789062 12 60 12 Z M 36.585938 28.585938 C 37.367188 27.804688 38.632812 27.804688 39.414062 28.585938 L 47.414062 36.585938 C 48.195312 37.367188 48.195312 38.632812 47.414062 39.414062 L 39.414062 47.414062 C 38.632812 48.195312 37.367188 48.195312 36.585938 47.414062 C 35.804688 46.632812 35.804688 45.367188 36.585938 44.585938 L 41.171875 40 L 22 40 C 20.894531 40 20 39.105469 20 38 C 20 36.894531 20.894531 36 22 36 L 41.171875 36 L 36.585938 31.414062 C 35.804688 30.632812 35.804688 29.367188 36.585938 28.585938 Z M 36.585938 28.585938 "/>
</g>
</svg>
