<?xml version="1.0" encoding="UTF-8"?>
<svg xmlns="http://www.w3.org/2000/svg" xmlns:xlink="http://www.w3.org/1999/xlink" width="80px" height="40px" viewBox="0 0 140 40" version="1.1">
<g id="surface1">
<path style=" stroke:none;fill-rule:nonzero;fill:rgb(55.686275%,44.313725%,30.588235%);fill-opacity:1;" d="M 127.476562 16.984375 C 127.367188 17.015625 127.230469 17.261719 127.230469 17.425781 C 127.203125 18.382812 127.175781 20.902344 127.175781 22.628906 C 127.175781 22.683594 127.257812 22.765625 127.3125 22.765625 C 127.667969 22.792969 128.515625 22.820312 129.253906 22.820312 C 130.265625 22.820312 130.867188 22.683594 131.195312 22.546875 C 132.042969 22.109375 132.453125 21.179688 132.453125 20.164062 C 132.453125 17.863281 130.839844 16.957031 128.433594 16.957031 C 128.296875 16.902344 127.832031 16.902344 127.476562 16.984375 Z M 133.601562 27.644531 C 133.601562 25.289062 131.878906 23.972656 128.734375 23.972656 C 128.597656 23.972656 127.585938 23.945312 127.367188 24 C 127.285156 24.027344 127.203125 24.082031 127.203125 24.136719 C 127.203125 25.835938 127.175781 28.519531 127.257812 29.5625 C 127.3125 30.027344 127.640625 30.65625 128.050781 30.847656 C 128.488281 31.097656 129.445312 31.125 130.128906 31.125 C 131.960938 31.125 133.601562 30.082031 133.601562 27.644531 Z M 122.609375 15.671875 C 122.855469 15.671875 123.566406 15.753906 125.398438 15.753906 C 127.121094 15.753906 128.515625 15.699219 130.210938 15.699219 C 132.289062 15.699219 135.132812 16.4375 135.132812 19.535156 C 135.132812 21.070312 134.066406 22.273438 132.671875 22.875 C 132.589844 22.902344 132.589844 22.957031 132.671875 22.957031 C 134.667969 23.453125 136.417969 24.683594 136.417969 27.042969 C 136.417969 29.316406 134.996094 30.792969 132.917969 31.699219 C 131.660156 32.246094 130.101562 32.4375 128.488281 32.4375 C 127.285156 32.4375 124.03125 32.300781 122.199219 32.355469 C 122.007812 32.273438 122.363281 31.425781 122.527344 31.289062 C 122.964844 31.261719 123.292969 31.234375 123.730469 31.097656 C 124.359375 30.929688 124.441406 30.738281 124.550781 29.753906 C 124.605469 28.929688 124.605469 25.972656 124.605469 23.863281 C 124.605469 20.984375 124.632812 19.015625 124.605469 18.082031 C 124.578125 17.34375 124.332031 17.097656 123.785156 16.957031 C 123.375 16.875 122.71875 16.792969 122.171875 16.710938 C 122.0625 16.574219 122.472656 15.753906 122.609375 15.671875 Z M 108.910156 30.492188 C 109.484375 30.957031 110.605469 31.125 111.589844 31.125 C 112.875 31.125 114.160156 30.875 115.390625 29.753906 C 116.648438 28.601562 117.523438 26.847656 117.523438 24.027344 C 117.523438 21.34375 116.511719 19.152344 114.40625 17.863281 C 113.230469 17.125 111.699219 16.820312 109.949219 16.820312 C 109.429688 16.820312 108.9375 16.847656 108.609375 16.984375 C 108.527344 17.042969 108.363281 17.261719 108.363281 17.371094 C 108.308594 17.835938 108.308594 21.507812 108.308594 23.671875 C 108.308594 25.890625 108.308594 28.984375 108.363281 29.34375 C 108.390625 29.699219 108.554688 30.246094 108.910156 30.492188 Z M 103.496094 15.671875 C 103.960938 15.671875 105.683594 15.753906 106.503906 15.753906 C 108.007812 15.753906 109.074219 15.671875 111.890625 15.671875 C 114.269531 15.671875 116.265625 16.300781 117.6875 17.535156 C 119.410156 19.042969 120.339844 21.097656 120.339844 23.644531 C 120.339844 27.234375 118.699219 29.316406 117.058594 30.492188 C 115.417969 31.699219 113.285156 32.410156 110.222656 32.410156 C 108.609375 32.410156 105.820312 32.355469 103.523438 32.328125 L 103.496094 32.328125 C 103.386719 32.109375 103.6875 31.289062 103.878906 31.261719 C 104.507812 31.179688 104.671875 31.179688 104.972656 31.042969 C 105.464844 30.847656 105.574219 30.574219 105.628906 29.699219 C 105.710938 28.054688 105.683594 26.082031 105.683594 23.835938 C 105.683594 22.246094 105.710938 19.125 105.65625 18.109375 C 105.574219 17.289062 105.21875 17.070312 104.507812 16.929688 C 104.152344 16.847656 103.6875 16.765625 103.003906 16.683594 C 102.949219 16.546875 103.386719 15.808594 103.496094 15.671875 Z M 103.496094 15.671875 "/>
<path style=" stroke:none;fill-rule:nonzero;fill:rgb(26.666667%,17.647059%,13.333333%);fill-opacity:1;" d="M 74.730469 31.425781 C 74.128906 31.34375 73.71875 31.261719 73.171875 31.015625 C 73.089844 30.957031 72.980469 30.738281 72.980469 30.628906 C 72.925781 29.808594 72.925781 27.425781 72.925781 25.808594 C 72.925781 24.519531 72.707031 23.398438 72.160156 22.601562 C 71.53125 21.699219 70.601562 21.179688 69.398438 21.179688 C 68.359375 21.179688 66.9375 21.890625 65.789062 22.902344 C 65.761719 22.929688 65.570312 23.097656 65.597656 22.820312 C 65.597656 22.546875 65.652344 22.027344 65.679688 21.671875 C 65.707031 21.34375 65.515625 21.179688 65.515625 21.179688 C 64.75 21.5625 62.617188 22.054688 61.824219 22.136719 C 61.25 22.246094 61.113281 22.792969 61.714844 22.984375 L 61.742188 22.984375 C 62.371094 23.179688 62.808594 23.398438 63.136719 23.617188 C 63.382812 23.808594 63.355469 24.082031 63.355469 24.273438 C 63.382812 26.054688 63.382812 28.792969 63.300781 30.300781 C 63.273438 30.902344 63.109375 31.125 62.671875 31.207031 L 62.726562 31.179688 C 62.398438 31.261719 62.125 31.316406 61.714844 31.371094 C 61.578125 31.507812 61.578125 32.273438 61.714844 32.4375 C 61.988281 32.4375 63.355469 32.355469 64.503906 32.355469 C 66.0625 32.355469 66.882812 32.4375 67.292969 32.4375 C 67.457031 32.246094 67.511719 31.535156 67.402344 31.371094 C 66.9375 31.34375 66.609375 31.289062 66.308594 31.207031 C 65.871094 31.125 65.761719 30.902344 65.734375 30.382812 C 65.679688 29.125 65.679688 26.464844 65.679688 24.628906 C 65.679688 24.136719 65.816406 23.890625 65.953125 23.753906 C 66.5 23.289062 67.375 22.929688 68.167969 22.929688 C 68.933594 22.929688 69.425781 23.179688 69.808594 23.480469 C 70.328125 23.917969 70.492188 24.519531 70.574219 24.984375 C 70.683594 26 70.65625 28.027344 70.65625 29.808594 C 70.65625 30.765625 70.574219 30.984375 70.21875 31.125 C 70.054688 31.207031 69.617188 31.289062 69.125 31.34375 C 68.960938 31.507812 69.015625 32.246094 69.125 32.410156 C 69.808594 32.410156 70.628906 32.328125 71.804688 32.328125 C 73.28125 32.328125 74.238281 32.410156 74.621094 32.410156 C 74.785156 32.300781 74.839844 31.617188 74.730469 31.425781 Z M 81.320312 22.328125 C 80.0625 22.328125 79.269531 23.316406 79.269531 24.820312 C 79.269531 26.382812 79.953125 28.164062 81.921875 28.164062 C 82.25 28.164062 82.878906 28.027344 83.152344 27.699219 C 83.617188 27.261719 83.917969 26.410156 83.917969 25.507812 C 83.917969 23.507812 82.933594 22.328125 81.320312 22.328125 Z M 81.15625 32.847656 C 80.691406 32.847656 80.335938 32.984375 80.144531 33.125 C 79.132812 33.753906 78.695312 34.382812 78.695312 35.125 C 78.695312 35.808594 78.96875 36.355469 79.515625 36.847656 C 80.199219 37.453125 81.15625 37.726562 82.359375 37.726562 C 84.792969 37.726562 85.859375 36.410156 85.859375 35.125 C 85.859375 34.21875 85.394531 33.617188 84.492188 33.289062 C 83.808594 32.984375 82.605469 32.847656 81.15625 32.847656 Z M 81.320312 39.042969 C 79.871094 39.042969 78.832031 38.738281 77.929688 38.027344 C 77.054688 37.371094 76.671875 36.355469 76.671875 35.671875 C 76.671875 35.480469 76.726562 34.957031 77.136719 34.492188 C 77.410156 34.21875 77.957031 33.671875 79.324219 32.738281 C 79.378906 32.710938 79.40625 32.683594 79.40625 32.65625 C 79.40625 32.601562 79.351562 32.574219 79.324219 32.546875 C 78.203125 32.109375 77.875 31.425781 77.765625 31.042969 L 77.765625 30.957031 C 77.738281 30.820312 77.683594 30.683594 77.902344 30.519531 C 78.066406 30.410156 78.3125 30.246094 78.558594 30.082031 C 78.96875 29.835938 79.378906 29.589844 79.652344 29.371094 C 79.707031 29.316406 79.707031 29.289062 79.707031 29.234375 C 79.707031 29.179688 79.652344 29.152344 79.625 29.125 C 77.957031 28.574219 77.136719 27.34375 77.136719 25.480469 C 77.136719 24.273438 77.683594 23.179688 78.667969 22.464844 C 79.324219 21.945312 80.992188 21.289062 82.085938 21.289062 L 82.167969 21.289062 C 83.289062 21.316406 83.890625 21.5625 84.792969 21.863281 C 85.257812 22.027344 85.722656 22.109375 86.351562 22.109375 C 87.28125 22.109375 87.691406 21.835938 88.019531 21.480469 C 88.046875 21.535156 88.101562 21.644531 88.101562 21.945312 C 88.128906 22.246094 88.019531 22.710938 87.800781 23.042969 C 87.609375 23.316406 87.171875 23.507812 86.761719 23.507812 L 86.652344 23.507812 C 86.214844 23.453125 86.023438 23.425781 86.023438 23.425781 L 85.941406 23.480469 C 85.914062 23.535156 85.941406 23.5625 85.96875 23.644531 L 85.996094 23.699219 C 86.050781 23.917969 86.132812 24.546875 86.132812 24.710938 C 86.132812 26.65625 85.339844 27.535156 84.519531 28.164062 C 83.699219 28.765625 82.796875 29.152344 81.730469 29.234375 C 81.703125 29.234375 81.621094 29.234375 81.402344 29.261719 C 81.292969 29.261719 81.128906 29.289062 81.101562 29.289062 L 81.074219 29.289062 C 80.882812 29.34375 80.417969 29.5625 80.417969 29.972656 C 80.417969 30.328125 80.636719 30.765625 81.648438 30.820312 C 81.867188 30.847656 82.085938 30.847656 82.304688 30.875 C 83.671875 30.957031 85.339844 31.097656 86.132812 31.34375 C 87.226562 31.753906 87.910156 32.710938 87.910156 33.890625 C 87.910156 35.644531 86.652344 37.289062 84.546875 38.328125 C 83.453125 38.792969 82.441406 39.042969 81.320312 39.042969 Z M 94.882812 22.4375 C 94.390625 22.4375 93.925781 22.546875 93.597656 22.792969 C 92.667969 23.371094 92.203125 24.519531 92.203125 26.164062 C 92.203125 29.289062 93.761719 31.480469 96.003906 31.480469 C 96.660156 31.480469 97.179688 31.289062 97.644531 30.902344 C 98.328125 30.328125 98.683594 29.179688 98.683594 27.589844 C 98.683594 24.519531 97.125 22.4375 94.882812 22.4375 Z M 95.292969 32.628906 C 91.246094 32.628906 89.796875 29.644531 89.796875 26.875 C 89.796875 24.929688 90.589844 23.425781 92.148438 22.355469 C 93.269531 21.671875 94.609375 21.289062 95.785156 21.289062 C 98.875 21.289062 101.035156 23.507812 101.035156 26.683594 C 101.035156 28.847656 100.1875 30.574219 98.546875 31.617188 C 97.78125 32.136719 96.414062 32.628906 95.292969 32.628906 Z M 52.9375 22.4375 C 52.445312 22.4375 51.980469 22.546875 51.652344 22.792969 C 50.722656 23.371094 50.257812 24.519531 50.257812 26.164062 C 50.257812 29.289062 51.816406 31.480469 54.058594 31.480469 C 54.714844 31.480469 55.234375 31.289062 55.699219 30.902344 C 56.382812 30.328125 56.738281 29.179688 56.738281 27.589844 C 56.738281 24.519531 55.207031 22.4375 52.9375 22.4375 Z M 53.375 32.628906 C 49.328125 32.628906 47.878906 29.644531 47.878906 26.875 C 47.878906 24.929688 48.671875 23.425781 50.230469 22.355469 C 51.351562 21.671875 52.691406 21.289062 53.867188 21.289062 C 56.957031 21.289062 59.117188 23.507812 59.117188 26.683594 C 59.117188 28.847656 58.269531 30.574219 56.628906 31.617188 C 55.863281 32.136719 54.496094 32.628906 53.375 32.628906 Z M 26.195312 32.382812 C 26.140625 32.300781 26.113281 32.109375 26.113281 31.835938 C 26.113281 31.644531 26.167969 31.535156 26.195312 31.480469 C 26.6875 31.398438 26.960938 31.34375 27.234375 31.261719 C 27.699219 31.152344 27.890625 30.875 27.917969 30.273438 C 28 28.847656 28 26.136719 27.972656 24.246094 L 27.972656 24.191406 C 27.972656 23.972656 27.972656 23.726562 27.699219 23.535156 C 27.316406 23.289062 26.878906 23.070312 26.277344 22.902344 C 26.058594 22.820312 25.921875 22.710938 25.949219 22.574219 C 25.949219 22.4375 26.085938 22.273438 26.414062 22.21875 C 27.207031 22.136719 29.230469 21.644531 30.050781 21.289062 C 30.105469 21.34375 30.160156 21.480469 30.160156 21.671875 L 30.132812 21.945312 C 30.105469 22.21875 30.078125 22.519531 30.078125 22.820312 C 30.078125 22.902344 30.160156 22.984375 30.269531 22.984375 C 30.324219 22.984375 30.351562 22.957031 30.40625 22.929688 C 31.9375 21.753906 33.304688 21.316406 34.015625 21.316406 C 35.191406 21.316406 36.09375 21.863281 36.777344 23.015625 C 36.832031 23.097656 36.859375 23.097656 36.941406 23.097656 C 36.996094 23.097656 37.050781 23.070312 37.078125 23.015625 C 38.472656 21.945312 39.894531 21.289062 40.824219 21.289062 C 43.039062 21.289062 44.351562 22.929688 44.351562 25.726562 C 44.351562 26.519531 44.351562 27.535156 44.324219 28.464844 C 44.324219 29.289062 44.296875 30.054688 44.296875 30.601562 C 44.296875 30.710938 44.460938 31.097656 44.734375 31.179688 C 45.0625 31.34375 45.527344 31.425781 46.101562 31.507812 L 46.128906 31.507812 C 46.183594 31.671875 46.074219 32.300781 45.992188 32.410156 C 45.855469 32.410156 45.636719 32.410156 45.390625 32.382812 C 44.925781 32.355469 44.296875 32.328125 43.585938 32.328125 C 42.109375 32.328125 41.34375 32.355469 40.605469 32.410156 C 40.550781 32.21875 40.523438 31.644531 40.605469 31.507812 C 41.042969 31.425781 41.234375 31.371094 41.507812 31.289062 C 41.972656 31.152344 42.109375 30.929688 42.136719 30.300781 C 42.136719 29.835938 42.21875 26 42.082031 25.070312 C 41.945312 24.109375 41.234375 22.984375 39.648438 22.984375 C 39.046875 22.984375 38.117188 23.234375 37.214844 23.917969 C 37.160156 23.972656 37.132812 24.082031 37.132812 24.164062 L 37.132812 24.191406 C 37.214844 24.683594 37.214844 25.261719 37.214844 26.136719 L 37.214844 27.699219 C 37.214844 28.765625 37.1875 29.78125 37.214844 30.519531 C 37.214844 31.042969 37.515625 31.152344 37.789062 31.261719 C 37.925781 31.289062 38.035156 31.316406 38.144531 31.34375 C 38.363281 31.398438 38.582031 31.425781 38.910156 31.507812 C 38.964844 31.589844 38.964844 31.917969 38.882812 32.164062 C 38.855469 32.300781 38.800781 32.382812 38.800781 32.410156 C 37.980469 32.382812 37.160156 32.355469 35.957031 32.355469 C 35.601562 32.355469 34.972656 32.382812 34.453125 32.382812 C 34.015625 32.382812 33.632812 32.410156 33.386719 32.410156 C 33.359375 32.355469 33.304688 32.191406 33.304688 31.945312 C 33.304688 31.726562 33.359375 31.5625 33.386719 31.507812 C 33.496094 31.480469 33.605469 31.453125 33.714844 31.453125 C 33.988281 31.398438 34.234375 31.371094 34.480469 31.316406 C 34.890625 31.207031 35.027344 30.984375 35.054688 30.464844 C 35.136719 29.289062 35.191406 25.863281 35.027344 25.015625 C 34.753906 23.644531 33.960938 22.929688 32.703125 22.929688 C 31.964844 22.929688 31.035156 23.289062 30.269531 23.863281 C 30.160156 23.945312 30.050781 24.191406 30.050781 24.410156 L 30.050781 25.808594 C 30.050781 27.535156 30.050781 29.671875 30.078125 30.601562 C 30.105469 30.875 30.1875 31.234375 30.734375 31.34375 C 30.84375 31.371094 31.035156 31.425781 31.28125 31.425781 L 31.71875 31.507812 C 31.773438 31.644531 31.746094 32.21875 31.636719 32.410156 C 31.390625 32.410156 31.117188 32.382812 30.789062 32.382812 C 30.296875 32.355469 29.640625 32.328125 28.929688 32.328125 C 28.109375 32.328125 27.507812 32.355469 27.015625 32.382812 C 26.742188 32.382812 26.46875 32.382812 26.195312 32.382812 Z M 26.195312 32.382812 "/>
<path style=" stroke:none;fill-rule:nonzero;fill:rgb(100%,100%,100%);fill-opacity:1;" d="M 13.671875 38.109375 L 12.6875 37.78125 C 12.6875 37.78125 12.796875 32.792969 11.019531 32.4375 C 9.84375 31.070312 11.210938 -26.164062 15.476562 32.246094 C 15.476562 32.246094 14 32.984375 13.753906 34.246094 C 13.480469 35.480469 13.671875 38.109375 13.671875 38.109375 Z M 13.671875 38.109375 "/>
<path style=" stroke:none;fill-rule:nonzero;fill:rgb(65.098039%,63.921569%,52.156863%);fill-opacity:1;" d="M 13.671875 38.109375 L 12.6875 37.78125 C 12.6875 37.78125 12.796875 32.792969 11.019531 32.4375 C 9.84375 31.070312 11.210938 -26.164062 15.476562 32.246094 C 15.476562 32.246094 14 32.984375 13.753906 34.246094 C 13.480469 35.480469 13.671875 38.109375 13.671875 38.109375 Z M 13.671875 38.109375 "/>
<path style=" stroke:none;fill-rule:nonzero;fill:rgb(100%,100%,100%);fill-opacity:1;" d="M 14.191406 33.289062 C 14.191406 33.289062 22.722656 27.671875 20.726562 15.972656 C 18.8125 7.480469 14.246094 4.683594 13.753906 3.617188 C 13.207031 2.847656 12.6875 1.507812 12.6875 1.507812 L 13.042969 25.152344 C 13.070312 25.207031 12.332031 32.410156 14.191406 33.289062 "/>
<path style=" stroke:none;fill-rule:nonzero;fill:rgb(28.627451%,61.568627%,29.019608%);fill-opacity:1;" d="M 14.191406 33.289062 C 14.191406 33.289062 22.722656 27.671875 20.726562 15.972656 C 18.8125 7.480469 14.246094 4.683594 13.753906 3.617188 C 13.207031 2.847656 12.6875 1.507812 12.6875 1.507812 L 13.042969 25.152344 C 13.070312 25.207031 12.332031 32.410156 14.191406 33.289062 "/>
<path style=" stroke:none;fill-rule:nonzero;fill:rgb(100%,100%,100%);fill-opacity:1;" d="M 12.195312 33.617188 C 12.195312 33.617188 4.183594 28.136719 4.648438 18.492188 C 5.113281 8.847656 10.746094 4.109375 11.839844 3.234375 C 12.578125 2.464844 12.605469 2.191406 12.660156 1.425781 C 13.152344 2.492188 13.070312 17.453125 13.125 19.234375 C 13.34375 26 12.742188 32.328125 12.195312 33.617188 Z M 12.195312 33.617188 "/>
<path style=" stroke:none;fill-rule:nonzero;fill:rgb(34.509804%,66.666667%,31.372549%);fill-opacity:1;" d="M 12.195312 33.617188 C 12.195312 33.617188 4.183594 28.136719 4.648438 18.492188 C 5.113281 8.847656 10.746094 4.109375 11.839844 3.234375 C 12.578125 2.464844 12.605469 2.191406 12.660156 1.425781 C 13.152344 2.492188 13.070312 17.453125 13.125 19.234375 C 13.34375 26 12.742188 32.328125 12.195312 33.617188 Z M 12.195312 33.617188 "/>
</g>
</svg>
