<?xml version="1.0" encoding="UTF-8"?>
<svg xmlns="http://www.w3.org/2000/svg" xmlns:xlink="http://www.w3.org/1999/xlink" width="80px" height="40px" viewBox="0 0 76 40" version="1.1">
<g id="surface1">
<path style=" stroke:none;fill-rule:nonzero;fill:rgb(0%,40.392157%,56.078431%);fill-opacity:1;" d="M 0.914062 35.800781 L 3.34375 35.800781 L 3.34375 26.148438 L 7.152344 34.542969 C 7.570312 35.550781 8.199219 35.929688 9.410156 35.929688 C 10.625 35.929688 11.167969 35.550781 11.628906 34.542969 L 15.398438 26.148438 L 15.398438 35.800781 L 17.824219 35.800781 L 17.824219 26.148438 C 17.824219 25.226562 17.449219 24.765625 16.652344 24.511719 C 14.8125 23.964844 13.554688 24.429688 13.011719 25.6875 L 9.328125 33.996094 L 5.726562 25.6875 C 5.183594 24.429688 3.929688 23.964844 2.085938 24.511719 C 1.292969 24.765625 0.914062 25.183594 0.914062 26.148438 Z M 0.914062 35.800781 "/>
<path style=" stroke:none;fill-rule:nonzero;fill:rgb(0%,40.392157%,56.078431%);fill-opacity:1;" d="M 19.835938 27.953125 L 22.261719 27.953125 L 22.261719 33.242188 C 22.261719 33.535156 22.34375 34.207031 23.683594 34.25 C 24.398438 34.25 28.957031 34.25 29 34.25 L 29 27.910156 L 31.429688 27.910156 C 31.429688 27.910156 31.429688 36.558594 31.429688 36.601562 C 31.429688 38.742188 28.792969 39.203125 27.578125 39.203125 L 19.917969 39.203125 L 19.917969 37.566406 C 19.917969 37.566406 27.621094 37.566406 27.621094 37.566406 C 29.167969 37.398438 29 36.601562 29 36.347656 L 29 35.71875 L 23.8125 35.71875 C 21.382812 35.71875 19.835938 34.628906 19.835938 33.410156 C 19.835938 33.285156 19.917969 27.996094 19.835938 27.953125 Z M 19.835938 27.953125 "/>
<path style=" stroke:none;fill-rule:nonzero;fill:rgb(0%,40.392157%,56.078431%);fill-opacity:1;" d="M 72.324219 21.785156 C 70.816406 21.742188 69.6875 21.910156 68.679688 22.289062 C 68.386719 22.414062 67.96875 22.414062 67.925781 22.75 C 68.09375 22.917969 68.09375 23.128906 68.21875 23.335938 C 68.429688 23.714844 68.847656 24.21875 69.183594 24.46875 C 69.558594 24.765625 69.980469 25.058594 70.398438 25.351562 C 71.109375 25.8125 71.945312 26.066406 72.65625 26.527344 C 73.074219 26.777344 73.496094 27.113281 73.871094 27.40625 C 74.082031 27.574219 74.207031 27.785156 74.457031 27.910156 C 74.457031 27.910156 74.457031 27.871094 74.457031 27.871094 C 74.332031 27.703125 74.289062 27.449219 74.164062 27.28125 C 73.996094 27.113281 73.789062 26.945312 73.621094 26.738281 C 73.074219 26.023438 72.40625 25.351562 71.695312 24.847656 C 71.109375 24.429688 69.769531 23.882812 69.558594 23.167969 C 69.558594 23.167969 69.558594 23.167969 69.519531 23.128906 C 69.9375 23.085938 70.398438 22.960938 70.816406 22.832031 C 71.445312 22.664062 72.03125 22.707031 72.699219 22.539062 C 72.992188 22.457031 73.285156 22.371094 73.578125 22.289062 C 73.578125 22.246094 73.578125 22.160156 73.578125 22.121094 C 73.242188 21.785156 72.992188 21.320312 72.65625 21.027344 C 71.695312 20.1875 70.648438 19.390625 69.558594 18.71875 C 68.972656 18.34375 68.21875 18.089844 67.632812 17.796875 C 67.425781 17.671875 67.046875 17.628906 66.921875 17.460938 C 66.589844 17.039062 66.378906 16.496094 66.167969 16.035156 C 65.625 14.984375 65.125 13.851562 64.621094 12.757812 C 64.285156 12.046875 64.078125 11.289062 63.65625 10.617188 C 61.734375 7.429688 59.640625 5.5 56.417969 3.609375 C 55.707031 3.230469 54.910156 3.0625 54.03125 2.855469 C 53.570312 2.855469 53.109375 2.8125 52.648438 2.769531 C 52.355469 2.644531 52.0625 2.265625 51.769531 2.097656 C 50.722656 1.425781 47.960938 -0.0429688 47.167969 1.890625 C 46.664062 3.105469 47.921875 4.324219 48.339844 4.910156 C 48.671875 5.332031 49.050781 5.835938 49.300781 6.296875 C 49.425781 6.632812 49.46875 6.96875 49.59375 7.304688 C 49.886719 8.144531 50.179688 9.023438 50.558594 9.820312 C 50.765625 10.199219 50.976562 10.617188 51.269531 10.996094 C 51.4375 11.207031 51.6875 11.289062 51.730469 11.625 C 51.476562 12.003906 51.4375 12.550781 51.308594 13.011719 C 50.640625 15.109375 50.890625 17.753906 51.855469 19.308594 C 52.148438 19.769531 52.859375 20.820312 53.820312 20.398438 C 54.660156 20.0625 54.492188 19.011719 54.699219 18.046875 C 54.742188 17.839844 54.699219 17.671875 54.828125 17.542969 C 54.828125 17.542969 54.828125 17.585938 54.828125 17.585938 C 55.078125 18.089844 55.328125 18.636719 55.578125 19.140625 C 56.164062 20.0625 57.171875 21.027344 58.007812 21.65625 C 58.46875 21.992188 58.804688 22.582031 59.390625 22.792969 C 59.390625 22.792969 59.390625 22.75 59.390625 22.75 C 59.390625 22.75 59.390625 22.75 59.347656 22.75 C 59.222656 22.582031 59.054688 22.496094 58.929688 22.371094 C 58.59375 22.035156 58.21875 21.617188 57.964844 21.238281 C 57.171875 20.1875 56.5 19.011719 55.871094 17.839844 C 55.578125 17.25 55.328125 16.621094 55.078125 16.035156 C 54.953125 15.824219 54.953125 15.488281 54.785156 15.363281 C 54.492188 15.78125 54.074219 16.117188 53.90625 16.621094 C 53.570312 17.417969 53.527344 18.425781 53.402344 19.433594 C 53.320312 19.433594 53.363281 19.433594 53.320312 19.476562 C 52.734375 19.308594 52.523438 18.71875 52.273438 18.175781 C 51.730469 16.832031 51.601562 14.691406 52.105469 13.179688 C 52.230469 12.800781 52.816406 11.542969 52.566406 11.164062 C 52.441406 10.828125 52.0625 10.617188 51.855469 10.324219 C 51.601562 9.988281 51.351562 9.527344 51.183594 9.109375 C 50.722656 8.058594 50.515625 6.882812 50.011719 5.835938 C 49.804688 5.332031 49.386719 4.828125 49.09375 4.40625 C 48.757812 3.902344 48.339844 3.527344 48.046875 2.9375 C 47.960938 2.726562 47.835938 2.390625 47.960938 2.183594 C 48.003906 2.015625 48.085938 1.972656 48.214844 1.929688 C 48.464844 1.722656 49.132812 1.972656 49.386719 2.097656 C 50.097656 2.390625 50.640625 2.644531 51.226562 3.023438 C 51.476562 3.191406 51.769531 3.566406 52.105469 3.652344 C 52.230469 3.652344 52.355469 3.652344 52.484375 3.652344 C 53.070312 3.777344 53.738281 3.695312 54.324219 3.863281 C 55.328125 4.199219 56.207031 4.660156 57.003906 5.164062 C 59.429688 6.714844 61.480469 8.941406 62.820312 11.585938 C 63.03125 12.003906 63.15625 12.425781 63.324219 12.84375 C 63.699219 13.765625 64.203125 14.691406 64.578125 15.613281 C 64.957031 16.496094 65.332031 17.375 65.917969 18.132812 C 66.210938 18.511719 67.300781 18.71875 67.84375 18.929688 C 68.21875 19.097656 68.804688 19.265625 69.140625 19.433594 C 69.769531 19.8125 70.398438 20.273438 71.023438 20.691406 C 71.316406 20.945312 72.28125 21.40625 72.324219 21.785156 Z M 72.324219 21.785156 "/>
<path style=" stroke:none;fill-rule:nonzero;fill:rgb(0%,40.392157%,56.078431%);fill-opacity:1;" d="M 53.277344 5.539062 C 52.941406 5.539062 52.734375 5.582031 52.523438 5.625 C 52.523438 5.625 52.523438 5.625 52.523438 5.667969 C 52.523438 5.667969 52.523438 5.667969 52.566406 5.667969 C 52.734375 5.960938 52.984375 6.171875 53.152344 6.421875 C 53.320312 6.714844 53.445312 7.007812 53.570312 7.304688 C 53.570312 7.304688 53.613281 7.261719 53.613281 7.261719 C 53.863281 7.09375 53.988281 6.757812 53.988281 6.335938 C 53.863281 6.210938 53.863281 6.085938 53.78125 5.960938 C 53.65625 5.75 53.402344 5.667969 53.277344 5.539062 Z M 53.277344 5.539062 "/>
<path style=" stroke:none;fill-rule:nonzero;fill:rgb(89.019608%,55.294118%,10.196078%);fill-opacity:1;" d="M 33.3125 35.800781 L 40.34375 35.800781 C 41.179688 35.800781 41.933594 35.636719 42.605469 35.339844 C 43.652344 34.835938 44.152344 34.207031 44.152344 33.328125 L 44.152344 31.523438 C 44.152344 30.808594 43.566406 30.179688 42.4375 29.714844 C 41.851562 29.507812 41.097656 29.382812 40.34375 29.382812 L 37.414062 29.382812 C 36.410156 29.382812 35.949219 29.085938 35.824219 28.414062 C 35.824219 28.332031 35.824219 28.246094 35.824219 28.207031 L 35.824219 27.113281 C 35.824219 27.074219 35.824219 26.988281 35.824219 26.90625 C 35.949219 26.402344 36.199219 26.273438 37.078125 26.191406 C 37.164062 26.191406 37.246094 26.191406 37.289062 26.191406 L 44.238281 26.191406 L 44.238281 24.554688 L 37.414062 24.554688 C 36.410156 24.554688 35.90625 24.597656 35.445312 24.765625 C 34.023438 25.226562 33.355469 25.9375 33.355469 27.199219 L 33.355469 28.542969 C 33.355469 29.632812 34.566406 30.597656 36.660156 30.808594 C 36.871094 30.808594 37.121094 30.808594 37.371094 30.808594 L 39.882812 30.808594 C 39.96875 30.808594 40.050781 30.808594 40.132812 30.808594 C 40.886719 30.890625 41.222656 31.019531 41.472656 31.3125 C 41.640625 31.480469 41.640625 31.605469 41.640625 31.773438 L 41.640625 33.199219 C 41.640625 33.367188 41.515625 33.578125 41.308594 33.789062 C 41.097656 33.996094 40.71875 34.125 40.261719 34.125 C 40.175781 34.125 40.09375 34.125 40.007812 34.125 L 33.3125 34.125 Z M 33.3125 35.800781 "/>
<path style=" stroke:none;fill-rule:nonzero;fill:rgb(89.019608%,55.294118%,10.196078%);fill-opacity:1;" d="M 59.347656 32.949219 C 59.347656 34.628906 60.601562 35.550781 63.113281 35.71875 C 63.363281 35.71875 63.574219 35.761719 63.824219 35.761719 L 70.1875 35.761719 L 70.1875 34.125 L 63.785156 34.125 C 62.359375 34.125 61.816406 33.789062 61.816406 32.90625 L 61.816406 24.511719 L 59.390625 24.511719 Z M 59.347656 32.949219 "/>
<path style=" stroke:none;fill-rule:nonzero;fill:rgb(89.019608%,55.294118%,10.196078%);fill-opacity:1;" d="M 45.703125 33.03125 L 45.703125 27.242188 C 45.703125 25.769531 46.75 24.847656 48.800781 24.597656 C 49.007812 24.597656 49.257812 24.554688 49.46875 24.554688 L 54.113281 24.554688 C 54.367188 24.554688 54.574219 24.554688 54.828125 24.597656 C 56.878906 24.890625 57.882812 25.769531 57.882812 27.242188 L 57.882812 33.03125 C 57.882812 34.25 57.464844 34.878906 56.457031 35.300781 L 58.84375 37.480469 L 56.039062 37.480469 L 54.113281 35.71875 L 52.148438 35.84375 L 49.550781 35.84375 C 49.132812 35.84375 48.632812 35.800781 48.128906 35.675781 C 46.453125 35.214844 45.703125 34.375 45.703125 33.03125 Z M 48.339844 32.90625 C 48.339844 32.992188 48.378906 33.074219 48.378906 33.160156 C 48.507812 33.828125 49.132812 34.207031 50.097656 34.207031 L 52.316406 34.207031 L 50.304688 32.359375 L 53.109375 32.359375 L 54.867188 33.957031 C 55.203125 33.789062 55.414062 33.496094 55.496094 33.160156 C 55.496094 33.074219 55.496094 32.992188 55.496094 32.90625 L 55.496094 27.367188 C 55.496094 27.28125 55.496094 27.199219 55.496094 27.15625 C 55.371094 26.527344 54.742188 26.148438 53.78125 26.148438 L 50.097656 26.148438 C 49.007812 26.148438 48.296875 26.609375 48.296875 27.367188 Z M 48.339844 32.90625 "/>
<path style=" stroke:none;fill-rule:nonzero;fill:rgb(89.019608%,55.294118%,10.196078%);fill-opacity:1;" d="M 71.277344 35.800781 L 71.609375 35.800781 L 71.609375 34.417969 L 72.070312 34.417969 L 72.070312 34.125 L 70.773438 34.125 L 70.773438 34.417969 L 71.277344 34.417969 Z M 73.996094 35.800781 L 74.332031 35.800781 L 74.332031 34.164062 L 73.828125 34.164062 L 73.410156 35.300781 L 72.949219 34.164062 L 72.449219 34.164062 L 72.449219 35.800781 L 72.78125 35.800781 L 72.78125 34.542969 L 73.242188 35.800781 L 73.496094 35.800781 L 73.953125 34.542969 Z M 73.996094 35.800781 "/>
</g>
</svg>
