<?xml version="1.0" encoding="UTF-8"?>
<svg xmlns="http://www.w3.org/2000/svg" xmlns:xlink="http://www.w3.org/1999/xlink" width="80px" height="20px" viewBox="0 0 79 20" version="1.1">
<g id="surface1">
<path style="fill-rule:nonzero;fill:rgb(60%,60%,60%);fill-opacity:1;stroke-width:1.866;stroke-linecap:round;stroke-linejoin:round;stroke:rgb(60%,60%,60%);stroke-opacity:1;stroke-miterlimit:4;" d="M 10.179179 0.00718153 L 10.179179 1.098118 C 9.482044 1.19882 8.961291 1.391831 8.65052 1.668761 C 8.339748 1.954083 8.188562 2.331715 8.188562 2.826832 C 8.188562 3.238031 8.331349 3.749932 8.608524 4.370927 C 8.885698 4.991921 9.288861 5.730401 9.801214 6.586366 L 13.018119 11.965522 L 16.184628 6.854905 L 17.242931 5.017097 C 17.478109 4.555547 17.646094 4.169523 17.730086 3.859026 C 17.839276 3.55692 17.889671 3.238031 17.889671 2.91075 C 17.889671 2.4492 17.755284 2.071569 17.486508 1.761071 C 17.226132 1.433791 16.789372 1.215603 16.15943 1.098118 L 16.15943 0.00718153 L 24.373876 0.00718153 L 24.373876 1.098118 C 23.836325 1.265954 23.340771 1.526101 22.887212 1.870165 C 22.458852 2.205838 21.996894 2.700955 21.49294 3.355517 L 19.393133 6.435314 L 14.387193 14.180961 L 20.014676 23.445528 L 21.71972 26.214828 L 22.69403 27.540735 C 22.988003 27.876408 23.315573 28.186905 23.668341 28.472227 C 24.021108 28.732373 24.466267 28.958952 24.970221 29.160356 L 24.970221 30.2429 L 15.252314 30.2429 L 15.252314 29.160356 C 15.932651 29.04287 16.428206 28.849858 16.755776 28.606496 C 17.083345 28.337958 17.242931 27.943542 17.242931 27.431641 C 17.242931 27.01205 17.14214 26.558892 16.906962 26.055383 C 16.70538 25.551874 16.37781 24.93088 15.932651 24.1924 L 11.934618 17.495729 L 7.701407 24.427371 C 7.004271 25.593833 6.643104 26.558892 6.643104 27.305764 C 6.643104 27.800881 6.777492 28.195297 7.037868 28.505794 C 7.306643 28.816291 7.743403 29.034478 8.373345 29.151964 L 8.373345 30.234508 L -0.000685621 30.234508 L -0.000685621 29.151964 C 0.545264 28.984128 0.998823 28.791116 1.35159 28.572928 C 1.721156 28.321174 2.065525 28.019069 2.367897 27.683396 C 2.695467 27.330939 3.056634 26.886173 3.451397 26.332313 L 5.358022 23.479095 L 10.582342 15.33064 L 4.341716 5.050664 L 2.98944 2.986277 C 2.695467 2.558294 2.409893 2.21423 2.149517 1.945691 C 1.89754 1.685545 1.670761 1.500925 1.46078 1.391831 C 1.234001 1.265954 0.998823 1.165252 0.746846 1.098118 L 0.746846 0.00718153 L 10.187579 0.00718153 " transform="matrix(0.465072,0,0,0.465483,0.433913,0.457595)"/>
<path style="fill-rule:nonzero;fill:rgb(0%,0%,0%);fill-opacity:1;stroke-width:1.866;stroke-linecap:round;stroke-linejoin:round;stroke:rgb(0%,0%,0%);stroke-opacity:1;stroke-miterlimit:4;" d="M 34.738524 17.109706 L 34.738524 24.637166 L 34.830916 26.9617 C 34.931706 27.440033 35.049295 27.800881 35.208881 28.052636 C 35.376865 28.287607 35.595245 28.48901 35.87242 28.648455 C 36.157994 28.799508 36.63675 28.967344 37.317087 29.151964 L 37.317087 30.234508 L 27.977145 30.234508 L 27.977145 29.151964 C 28.892661 28.908601 29.505805 28.656847 29.816576 28.371525 C 30.118948 28.077811 30.32053 27.666612 30.412921 27.137928 C 30.522111 26.600851 30.572507 25.786845 30.572507 24.695909 L 30.572507 5.537389 L 30.471716 3.321949 C 30.396123 2.852008 30.270134 2.49116 30.093751 2.239405 C 29.934165 1.970867 29.707386 1.761071 29.430212 1.618411 C 29.153037 1.450574 28.665882 1.274346 27.985544 1.089726 L 27.985544 -0.00121029 L 38.954937 -0.00121029 C 42.40702 -0.00121029 44.993982 0.628176 46.707425 1.886949 C 48.420867 3.137329 49.277589 5.084231 49.277589 7.727654 C 49.277589 9.750082 48.71484 11.470404 47.589344 12.888621 C 46.489045 14.306839 44.817598 15.414559 42.583404 16.211781 L 42.583404 16.388009 C 43.465323 16.740466 44.25485 17.285934 44.893191 17.982455 C 45.539932 18.662192 46.253866 19.727953 47.034995 21.188129 L 49.034011 24.813394 C 49.605159 25.879155 50.100713 26.693161 50.512275 27.255413 C 50.932237 27.809273 51.352198 28.254039 51.780559 28.539361 C 52.20892 28.816291 52.771668 29.04287 53.485602 29.160356 L 53.485602 30.2429 L 47.337367 30.2429 C 46.75782 29.428894 46.228669 28.589712 45.741514 27.716963 L 44.25485 24.981231 L 42.306229 21.280439 L 40.844763 18.796461 C 40.475197 18.267777 40.130829 17.898537 39.803259 17.688741 C 39.500887 17.470554 39.156518 17.319501 38.786952 17.243975 C 38.434185 17.151665 37.896634 17.118098 37.165901 17.118098 L 34.730125 17.118098 M 34.730125 2.054785 L 34.730125 15.204763 L 37.233095 15.204763 C 38.518177 15.204763 39.559681 15.104061 40.357608 14.936225 C 41.163934 14.743213 41.919865 14.382365 42.575004 13.878856 C 43.255342 13.358563 43.792893 12.645259 44.196055 11.730551 C 44.607618 10.799059 44.809199 9.657772 44.809199 8.315081 C 44.809199 6.913647 44.565622 5.747185 44.078466 4.815693 C 43.608109 3.884201 42.852179 3.137329 41.911465 2.692563 C 40.937155 2.205838 39.610077 1.962475 37.972227 1.962475 L 34.738524 2.054785 M 72.333471 26.474974 C 71.392758 27.4736 70.519238 28.237256 69.721311 28.799508 C 68.923385 29.370151 68.049865 29.814917 67.12595 30.133807 C 66.185236 30.42752 65.143732 30.595357 64.009836 30.595357 C 60.960916 30.595357 58.667926 29.68904 57.122468 27.868016 C 55.568611 26.0386 54.795882 23.344826 54.795882 19.786696 C 54.795882 17.588039 55.190646 15.641138 55.963375 13.962774 C 56.761302 12.276019 57.895197 10.975287 59.365062 10.060579 C 60.843327 9.145871 62.514773 8.692713 64.412999 8.692713 C 65.916461 8.692713 67.176345 8.927684 68.217849 9.389234 C 69.259354 9.850784 70.099277 10.513737 70.72082 11.336135 C 71.359161 12.14175 71.837917 13.182335 72.182285 14.441108 C 72.535053 15.683097 72.736634 17.302718 72.778631 19.316754 L 58.827512 19.316754 L 58.827512 19.711169 C 58.827512 21.456667 59.012295 22.925235 59.398659 24.116873 C 59.801822 25.30012 60.440164 26.231611 61.330482 26.911349 C 62.229199 27.574302 63.396692 27.909975 64.824561 27.909975 C 66.025651 27.909975 67.12595 27.683396 68.083462 27.247021 C 69.057772 26.785471 70.023684 26.046991 70.981196 25.031581 L 72.333471 26.466582 M 68.612613 17.478946 C 68.511822 15.8845 68.327039 14.583769 68.016268 13.576751 C 67.713896 12.561341 67.243539 11.780902 66.621996 11.252217 C 66.000453 10.706749 65.194127 10.429819 64.18622 10.429819 C 62.665959 10.429819 61.448071 11.050813 60.532555 12.276019 C 59.633838 13.484441 59.096287 15.221547 58.936702 17.478946 L 68.612613 17.478946 M 96.456056 11.302568 L 92.357232 11.143123 L 92.16405 11.394878 C 92.617609 11.848036 92.978775 12.477422 93.247551 13.274645 C 93.507927 14.055084 93.642314 14.902658 93.642314 15.817366 C 93.642314 18.225817 92.903182 20.088801 91.40812 21.397924 C 89.929855 22.698656 87.830048 23.353218 85.0919 23.353218 C 83.874012 23.353218 82.815709 23.193773 81.925391 22.883276 C 80.808293 23.739242 80.245545 24.586815 80.245545 25.409213 C 80.245545 25.954681 80.346336 26.36588 80.547917 26.651202 C 80.766297 26.928132 81.119065 27.129536 81.60622 27.247021 C 82.110174 27.364507 82.866104 27.423249 83.865612 27.423249 L 89.182324 27.423249 C 90.75298 27.423249 92.029663 27.666612 93.020772 28.153338 C 94.003481 28.640063 94.717416 29.303017 95.120579 30.125415 C 95.548939 30.931029 95.75892 31.896088 95.75892 32.987025 C 95.75892 34.371674 95.364156 35.605272 94.56623 36.687816 C 93.768303 37.778752 92.617609 38.626326 91.114147 39.230537 C 89.610685 39.834748 87.846847 40.136853 85.839431 40.136853 C 84.335969 40.136853 82.983693 40.044543 81.740607 39.876707 C 80.51432 39.700479 79.464417 39.398373 78.574098 38.978782 C 77.708978 38.559191 77.02864 38.005331 76.533086 37.317202 C 76.062729 36.637465 75.83595 35.7815 75.83595 34.740914 C 75.83595 33.817814 76.138322 32.961849 76.768264 32.198194 C 77.389807 31.44293 78.263327 30.779977 79.405622 30.200941 C 78.708486 29.924011 78.162536 29.512812 77.759373 28.967344 C 77.364609 28.421876 77.163028 27.775706 77.163028 27.037226 C 77.163028 26.214828 77.406606 25.409213 77.868563 24.737868 C 78.33892 24.024563 79.170444 23.218949 80.371533 22.321024 C 79.330029 21.725205 78.490106 20.852456 77.935757 19.795087 C 77.389807 18.729326 77.112633 17.520905 77.112633 16.16143 C 77.112633 14.894266 77.322613 13.794938 77.734175 12.863446 C 78.162536 11.915171 78.733684 11.143123 79.481215 10.538913 C 80.237146 9.917918 81.119065 9.456368 82.14377 9.162654 C 83.160077 8.868941 84.260376 8.701105 85.436268 8.701105 C 86.50297 8.701105 87.569672 8.826982 88.611177 9.070344 L 96.447657 9.070344 L 96.447657 11.31096 M 81.077068 15.808974 C 81.077068 17.655174 81.455034 19.073391 82.202565 20.080409 C 82.958496 21.087427 84.041996 21.582544 85.461466 21.582544 C 86.217396 21.582544 86.855738 21.448275 87.384889 21.162954 C 87.92244 20.86924 88.3508 20.474825 88.669971 19.971315 C 89.022739 19.442631 89.266316 18.863596 89.400704 18.242601 C 89.568689 17.579647 89.644282 16.883127 89.644282 16.16143 C 89.644282 14.860699 89.459499 13.778154 89.089933 12.905405 C 88.728766 12.032656 88.224812 11.40327 87.586471 11.000463 C 86.956528 10.589263 86.225796 10.379468 85.394272 10.379468 C 83.991601 10.379468 82.924899 10.841018 82.185767 11.77251 C 81.446634 12.704001 81.077068 14.046692 81.077068 15.808974 M 81.631418 30.603748 C 80.875487 31.166 80.304339 31.753427 79.926374 32.374422 C 79.556808 33.003808 79.372025 33.725504 79.372025 34.522727 C 79.372025 35.848634 79.892777 36.822085 80.942681 37.44308 C 82.009383 38.080858 83.622035 38.399747 85.797435 38.399747 C 87.124513 38.399747 88.258409 38.223519 89.190723 37.871062 C 90.156635 37.510214 90.895767 37.006705 91.382922 36.33536 C 91.878476 35.672406 92.138853 34.900359 92.138853 34.010826 C 92.138853 33.599627 92.088457 33.188428 91.987666 32.794013 C 91.878476 32.407989 91.685294 32.063925 91.382922 31.753427 C 91.105747 31.451322 90.702584 31.191176 90.165034 30.998164 C 89.635882 30.821936 88.947146 30.738017 88.090424 30.738017 L 84.789527 30.738017 C 83.588438 30.738017 82.538534 30.687667 81.623018 30.603748 M 120.057889 0.00718153 L 120.057889 6.703852 L 117.890888 6.703852 L 117.202151 4.807301 C 117.000569 4.328968 116.756992 3.867418 116.471418 3.431043 C 116.244639 3.086979 115.959065 2.784873 115.631495 2.54151 C 115.337522 2.323323 114.976355 2.17227 114.564793 2.105136 C 114.153231 2.012826 113.657676 1.970867 113.086529 1.970867 L 106.081572 1.970867 L 106.081572 13.576751 L 110.827136 13.576751 C 111.473877 13.576751 111.98623 13.476049 112.347397 13.308212 C 112.74216 13.090025 113.061331 12.762744 113.262913 12.359937 C 113.50649 11.915171 113.750068 11.21865 113.960049 10.270374 L 116.043057 10.270374 L 116.043057 18.779677 L 113.960049 18.779677 C 113.750068 17.890145 113.523289 17.227191 113.271312 16.782425 C 113.019335 16.329267 112.716963 16.001986 112.364195 15.808974 C 112.019827 15.615962 111.507474 15.51526 110.810338 15.51526 L 106.073173 15.51526 L 106.073173 28.295999 L 112.96054 28.295999 C 113.682874 28.295999 114.27082 28.228864 114.715979 28.11977 C 115.169537 27.985501 115.564301 27.767314 115.883472 27.4736 C 116.211042 27.179887 116.496616 26.77708 116.748592 26.281962 C 117.000569 25.795237 117.202151 25.291728 117.370135 24.771435 L 118.067271 22.472077 L 120.25947 22.472077 L 119.839509 30.2429 L 99.345391 30.2429 L 99.345391 29.160356 C 100.260907 28.925385 100.87405 28.665238 101.184822 28.379917 C 101.478795 28.086203 101.680376 27.675004 101.781167 27.14632 C 101.873559 26.609243 101.932353 25.803629 101.932353 24.704301 L 101.932353 5.545781 L 101.831562 3.330341 C 101.764369 2.860399 101.629981 2.499551 101.453597 2.247797 C 101.294012 1.979259 101.075632 1.777855 100.790058 1.626802 C 100.512884 1.458966 100.034127 1.282738 99.35379 1.098118 L 99.35379 0.00718153 L 120.049489 0.00718153 M 134.160193 17.462162 L 137.041129 13.80333 C 137.318303 13.442481 137.57028 13.056458 137.78866 12.653651 C 137.981842 12.292802 138.074234 11.889995 138.082633 11.478796 C 138.091032 11.159907 137.948246 10.84941 137.704668 10.639614 C 137.452691 10.421427 137.057927 10.261983 136.528776 10.152889 L 136.528776 9.070344 L 143.768911 9.070344 L 143.768911 10.152889 C 143.214562 10.312333 142.635015 10.631223 142.047069 11.109556 C 141.467522 11.579498 140.761987 12.343153 139.922064 13.392131 L 135.336085 19.014648 L 140.384022 25.812021 C 141.106356 26.785471 141.753096 27.532343 142.332643 28.052636 C 142.91219 28.572928 143.483337 28.942168 144.062884 29.151964 L 144.062884 30.234508 L 135.159702 30.234508 L 135.159702 29.151964 C 136.385989 29.000911 136.999133 28.547753 136.999133 27.775706 C 136.999133 27.4736 136.940338 27.171495 136.839547 26.894565 C 136.738757 26.609243 136.545574 26.290354 136.260001 25.921114 L 133.051495 21.439884 L 129.649808 25.870763 C 129.423028 26.156085 129.229846 26.45819 129.053462 26.77708 C 128.919075 27.062401 128.851881 27.372899 128.851881 27.691788 C 128.851881 28.086203 128.986269 28.421876 129.255044 28.682022 C 129.532218 28.933777 129.968978 29.093221 130.565324 29.151964 L 130.565324 30.234508 L 123.165603 30.234508 L 123.165603 29.151964 C 123.652758 28.975736 124.089518 28.749157 124.467484 28.48901 C 124.870647 28.220472 125.26541 27.884799 125.668573 27.465209 C 126.080135 27.037226 126.617686 26.416231 127.281225 25.610617 L 131.892402 19.895789 L 127.172035 13.425698 L 125.626577 11.49558 C 125.240213 11.101164 124.887445 10.799059 124.559875 10.589263 C 124.257503 10.396252 123.929933 10.245199 123.585565 10.144497 L 123.585565 9.061953 L 132.270367 9.061953 L 132.270367 10.144497 C 131.102874 10.329117 130.514928 10.782275 130.514928 11.520755 C 130.523327 11.873212 130.59892 12.217276 130.741707 12.536165 C 130.901293 12.88023 131.14487 13.257861 131.47244 13.669061 L 134.168593 17.462162 M 152.588101 29.554771 L 152.588101 34.229014 L 152.688892 36.377319 C 152.756086 36.855652 152.882074 37.224892 153.041659 37.485039 C 153.226442 37.770361 153.478419 38.013723 153.772392 38.173168 C 154.099962 38.349396 154.612315 38.517232 155.31785 38.659893 L 155.31785 39.742438 L 146.28868 39.742438 L 146.28868 38.659893 C 146.725439 38.542408 147.1538 38.391355 147.573762 38.198343 C 147.901331 38.064074 148.170107 37.820711 148.346491 37.510214 C 148.522874 37.216501 148.640464 36.805302 148.699258 36.293401 C 148.758053 35.773108 148.800049 35.084979 148.800049 34.229014 L 148.800049 15.246722 L 148.758053 12.989323 C 148.724456 12.527773 148.657262 12.150142 148.581669 11.856428 C 148.506076 11.58789 148.363289 11.336135 148.178506 11.12634 C 148.018921 10.933328 147.775343 10.773883 147.489769 10.639614 C 147.212595 10.505345 146.733839 10.371076 146.0703 10.236807 L 146.0703 9.070344 L 151.277821 8.877333 L 152.630097 8.877333 L 152.336124 12.477422 L 152.672093 12.569732 L 154.839094 10.555696 C 155.376645 10.127714 155.922595 9.766865 156.485343 9.489935 C 157.056491 9.213005 157.602441 9.011602 158.123193 8.894116 C 158.677542 8.768239 159.24029 8.709496 159.803038 8.709496 C 162.238815 8.709496 164.111843 9.632596 165.405324 11.462012 C 166.724003 13.274645 167.379143 15.943243 167.379143 19.459415 C 167.379143 21.893042 167.009577 23.957429 166.270445 25.610617 C 165.531312 27.272197 164.456211 28.514186 163.036741 29.353368 C 161.63407 30.184157 159.954225 30.595357 158.014003 30.595357 C 156.913704 30.595357 155.930994 30.494655 155.040676 30.310035 C 154.158757 30.133807 153.344032 29.890444 152.6049 29.579947 M 152.6049 22.279065 C 152.6049 23.697282 152.70569 24.779827 152.873675 25.560266 C 153.041659 26.332313 153.36083 26.953308 153.805989 27.440033 C 154.251148 27.901583 154.797098 28.262431 155.393443 28.505794 C 156.014986 28.740765 156.829712 28.85825 157.82922 28.85825 C 159.618255 28.85825 160.962132 28.11977 161.860849 26.64281 C 162.759567 25.149067 163.213125 22.958803 163.213125 20.063625 C 163.213125 14.273271 161.516481 11.378094 158.139991 11.378094 C 157.316867 11.378094 156.594533 11.512363 155.989789 11.780902 C 155.393443 12.032656 154.813897 12.443855 154.217551 13.022891 C 153.629605 13.593534 153.218043 14.155786 152.957667 14.701254 C 152.722489 15.23833 152.6049 15.808974 152.6049 16.429968 L 152.6049 22.279065 " transform="matrix(0.465072,0,0,0.465483,0.433913,0.457595)"/>
</g>
</svg>
