<?xml version="1.0" encoding="UTF-8"?>
<svg xmlns="http://www.w3.org/2000/svg" xmlns:xlink="http://www.w3.org/1999/xlink" width="80px" height="40px" viewBox="0 0 30 40" version="1.1">
<g id="surface1">
<path style=" stroke:none;fill-rule:evenodd;fill:rgb(11.764706%,53.333333%,89.803922%);fill-opacity:1;" d="M 0.414062 24.148438 L 14.757812 15.496094 L 29.1875 24.238281 L 14.84375 32.890625 Z M 0.414062 24.148438 "/>
<path style=" stroke:none;fill-rule:evenodd;fill:rgb(92.54902%,93.72549%,94.509804%);fill-opacity:1;" d="M 14.671875 38.875 L 14.671875 33.257812 C 14.730469 32.890625 14.902344 32.617188 15.191406 32.429688 L 28.839844 24.238281 C 29.128906 24.117188 29.273438 24.210938 29.273438 24.515625 L 29.273438 30.5 C 29.273438 30.683594 29.128906 30.867188 28.839844 31.050781 L 15.191406 39.207031 C 14.84375 39.351562 14.671875 39.242188 14.671875 38.875 Z M 14.671875 38.875 "/>
<path style=" stroke:none;fill-rule:evenodd;fill:rgb(8.235294%,39.607843%,75.294118%);fill-opacity:1;" d="M 0.242188 30.40625 L 14.84375 39.242188 L 14.84375 32.890625 L 0.414062 24.148438 C 0.300781 24.210938 0.242188 24.300781 0.242188 24.425781 Z M 0.242188 30.40625 "/>
<path style="fill:none;stroke-width:1;stroke-linecap:round;stroke-linejoin:miter;stroke:rgb(0%,0%,0%);stroke-opacity:1;stroke-miterlimit:4;" d="M 33.591927 71.642383 L 48.865885 62.585547 " transform="matrix(0.483871,0,0,0.487805,0.241935,0.243902)"/>
<path style=" stroke:none;fill-rule:evenodd;fill:rgb(89.803922%,22.352941%,20.784314%);fill-opacity:1;" d="M 24.839844 30.8125 L 24.839844 29.304688 L 25.078125 29.457031 L 25.078125 30.964844 Z M 24.839844 30.8125 "/>
<path style=" stroke:none;fill-rule:evenodd;fill:rgb(95.686275%,26.27451%,21.176471%);fill-opacity:1;" d="M 26.066406 28.566406 L 24.839844 29.304688 L 25.078125 29.453125 L 26.316406 28.714844 Z M 26.066406 28.566406 "/>
<path style=" stroke:none;fill-rule:evenodd;fill:rgb(93.72549%,32.54902%,31.372549%);fill-opacity:1;" d="M 26.316406 30.214844 L 26.316406 28.714844 L 25.078125 29.457031 L 25.078125 30.964844 Z M 26.316406 30.214844 "/>
<path style=" stroke:none;fill-rule:evenodd;fill:rgb(26.27451%,62.745098%,27.843137%);fill-opacity:1;" d="M 27.015625 29.523438 L 27.015625 28.015625 L 27.253906 28.167969 L 27.253906 29.675781 Z M 27.015625 29.523438 "/>
<path style=" stroke:none;fill-rule:evenodd;fill:rgb(29.803922%,68.627451%,31.372549%);fill-opacity:1;" d="M 28.242188 27.277344 L 27.015625 28.015625 L 27.253906 28.167969 L 28.492188 27.425781 Z M 28.242188 27.277344 "/>
<path style=" stroke:none;fill-rule:evenodd;fill:rgb(40%,73.333333%,41.568627%);fill-opacity:1;" d="M 28.492188 28.925781 L 28.492188 27.425781 L 27.253906 28.167969 L 27.253906 29.675781 Z M 28.492188 28.925781 "/>
<path style=" stroke:none;fill-rule:evenodd;fill:rgb(11.764706%,53.333333%,89.803922%);fill-opacity:1;" d="M 0.414062 16.601562 L 14.757812 7.949219 L 29.1875 16.691406 L 14.84375 25.34375 Z M 0.414062 16.601562 "/>
<path style=" stroke:none;fill-rule:evenodd;fill:rgb(92.54902%,93.72549%,94.509804%);fill-opacity:1;" d="M 14.671875 31.328125 L 14.671875 25.710938 C 14.730469 25.34375 14.902344 25.066406 15.191406 24.882812 L 28.839844 16.691406 C 29.128906 16.570312 29.273438 16.664062 29.273438 16.96875 L 29.273438 22.953125 C 29.273438 23.136719 29.128906 23.320312 28.839844 23.503906 L 15.191406 31.65625 C 14.84375 31.804688 14.671875 31.695312 14.671875 31.328125 Z M 14.671875 31.328125 "/>
<path style=" stroke:none;fill-rule:evenodd;fill:rgb(8.235294%,39.607843%,75.294118%);fill-opacity:1;" d="M 0.242188 22.859375 L 14.84375 31.695312 L 14.84375 25.34375 L 0.414062 16.601562 C 0.300781 16.660156 0.242188 16.753906 0.242188 16.875 Z M 0.242188 22.859375 "/>
<path style="fill:none;stroke-width:1;stroke-linecap:round;stroke-linejoin:miter;stroke:rgb(0%,0%,0%);stroke-opacity:1;stroke-miterlimit:4;" d="M 33.591927 56.171289 L 48.865885 47.114453 " transform="matrix(0.483871,0,0,0.487805,0.241935,0.243902)"/>
<path style=" stroke:none;fill-rule:evenodd;fill:rgb(89.803922%,22.352941%,20.784314%);fill-opacity:1;" d="M 24.839844 23.265625 L 24.839844 21.757812 L 25.078125 21.90625 L 25.078125 23.417969 Z M 24.839844 23.265625 "/>
<path style=" stroke:none;fill-rule:evenodd;fill:rgb(95.686275%,26.27451%,21.176471%);fill-opacity:1;" d="M 26.066406 21.019531 L 24.839844 21.757812 L 25.078125 21.90625 L 26.316406 21.167969 Z M 26.066406 21.019531 "/>
<path style=" stroke:none;fill-rule:evenodd;fill:rgb(93.72549%,32.54902%,31.372549%);fill-opacity:1;" d="M 26.316406 22.667969 L 26.316406 21.167969 L 25.078125 21.90625 L 25.078125 23.417969 Z M 26.316406 22.667969 "/>
<path style=" stroke:none;fill-rule:evenodd;fill:rgb(26.27451%,62.745098%,27.843137%);fill-opacity:1;" d="M 27.015625 21.976562 L 27.015625 20.46875 L 27.253906 20.621094 L 27.253906 22.128906 Z M 27.015625 21.976562 "/>
<path style=" stroke:none;fill-rule:evenodd;fill:rgb(29.803922%,68.627451%,31.372549%);fill-opacity:1;" d="M 28.242188 19.730469 L 27.015625 20.46875 L 27.253906 20.617188 L 28.492188 19.878906 Z M 28.242188 19.730469 "/>
<path style=" stroke:none;fill-rule:evenodd;fill:rgb(40%,73.333333%,41.568627%);fill-opacity:1;" d="M 28.492188 21.378906 L 28.492188 19.878906 L 27.253906 20.617188 L 27.253906 22.128906 Z M 28.492188 21.378906 "/>
<path style=" stroke:none;fill-rule:evenodd;fill:rgb(11.764706%,53.333333%,89.803922%);fill-opacity:1;" d="M 0.414062 8.894531 L 14.757812 0.242188 L 29.1875 8.988281 L 14.84375 17.640625 Z M 0.414062 8.894531 "/>
<path style=" stroke:none;fill-rule:evenodd;fill:rgb(92.54902%,93.72549%,94.509804%);fill-opacity:1;" d="M 14.671875 23.621094 L 14.671875 18.007812 C 14.730469 17.640625 14.902344 17.363281 15.191406 17.179688 L 28.839844 8.988281 C 29.128906 8.863281 29.273438 8.957031 29.273438 9.265625 L 29.273438 15.246094 C 29.273438 15.429688 29.128906 15.613281 28.839844 15.796875 L 15.191406 23.953125 C 14.84375 24.101562 14.671875 23.988281 14.671875 23.621094 Z M 14.671875 23.621094 "/>
<path style=" stroke:none;fill-rule:evenodd;fill:rgb(8.235294%,39.607843%,75.294118%);fill-opacity:1;" d="M 0.242188 15.152344 L 14.84375 23.988281 L 14.84375 17.640625 L 0.414062 8.894531 C 0.300781 8.957031 0.242188 9.050781 0.242188 9.171875 Z M 0.242188 15.152344 "/>
<path style="fill-rule:evenodd;fill:rgb(0%,0%,0%);fill-opacity:1;stroke-width:1;stroke-linecap:round;stroke-linejoin:miter;stroke:rgb(0%,0%,0%);stroke-opacity:1;stroke-miterlimit:4;" d="M 33.591927 40.379883 L 48.865885 31.323047 " transform="matrix(0.483871,0,0,0.487805,0.241935,0.243902)"/>
<path style=" stroke:none;fill-rule:evenodd;fill:rgb(89.803922%,22.352941%,20.784314%);fill-opacity:1;" d="M 24.839844 15.558594 L 24.839844 14.050781 L 25.078125 14.203125 L 25.078125 15.710938 Z M 24.839844 15.558594 "/>
<path style=" stroke:none;fill-rule:evenodd;fill:rgb(95.686275%,26.27451%,21.176471%);fill-opacity:1;" d="M 26.066406 13.3125 L 24.839844 14.050781 L 25.078125 14.203125 L 26.316406 13.460938 Z M 26.066406 13.3125 "/>
<path style=" stroke:none;fill-rule:evenodd;fill:rgb(93.72549%,32.54902%,31.372549%);fill-opacity:1;" d="M 26.316406 14.960938 L 26.316406 13.460938 L 25.078125 14.203125 L 25.078125 15.710938 Z M 26.316406 14.960938 "/>
<path style=" stroke:none;fill-rule:evenodd;fill:rgb(26.27451%,62.745098%,27.843137%);fill-opacity:1;" d="M 27.015625 14.273438 L 27.015625 12.761719 L 27.253906 12.914062 L 27.253906 14.421875 Z M 27.015625 14.273438 "/>
<path style=" stroke:none;fill-rule:evenodd;fill:rgb(29.803922%,68.627451%,31.372549%);fill-opacity:1;" d="M 28.242188 12.023438 L 27.015625 12.761719 L 27.253906 12.914062 L 28.492188 12.171875 Z M 28.242188 12.023438 "/>
<path style=" stroke:none;fill-rule:evenodd;fill:rgb(40%,73.333333%,41.568627%);fill-opacity:1;" d="M 28.492188 13.671875 L 28.492188 12.171875 L 27.253906 12.914062 L 27.253906 14.421875 Z M 28.492188 13.671875 "/>
</g>
</svg>
