<?xml version="1.0" encoding="UTF-8"?>
<svg xmlns="http://www.w3.org/2000/svg" xmlns:xlink="http://www.w3.org/1999/xlink" width="80px" height="80px" viewBox="0 0 80 80" version="1.1">
<g id="surface1">
<path style=" stroke:none;fill-rule:nonzero;fill:rgb(20%,20%,20%);fill-opacity:1;" d="M 36.667969 46.667969 C 36.667969 48.507812 35.175781 50 33.332031 50 C 31.492188 50 30 48.507812 30 46.667969 C 30 44.824219 31.492188 43.332031 33.332031 43.332031 C 35.175781 43.332031 36.667969 44.824219 36.667969 46.667969 Z M 36.667969 46.667969 "/>
<path style=" stroke:none;fill-rule:nonzero;fill:rgb(20%,20%,20%);fill-opacity:1;" d="M 10 73.332031 C 9.113281 73.339844 8.261719 72.992188 7.632812 72.367188 C 6.773438 71.488281 6.464844 70.207031 6.832031 69.035156 L 27.433594 9.035156 C 27.726562 8.195312 28.34375 7.511719 29.144531 7.128906 C 29.945312 6.75 30.863281 6.703125 31.699219 7 C 51.046875 13.746094 66.253906 28.953125 73 48.300781 C 73.296875 49.140625 73.246094 50.0625 72.859375 50.863281 C 72.46875 51.667969 71.777344 52.277344 70.933594 52.566406 L 69.398438 53.066406 C 67.996094 53.558594 66.4375 53.058594 65.578125 51.84375 C 64.71875 50.628906 64.769531 48.992188 65.699219 47.832031 C 59.621094 32.71875 47.699219 20.699219 32.632812 14.5 L 15.367188 64.5 L 54.601562 50.964844 C 56.347656 50.359375 58.257812 51.285156 58.867188 53.035156 C 59.472656 54.78125 58.550781 56.691406 56.800781 57.300781 L 11.101562 73.332031 C 10.734375 73.382812 10.363281 73.382812 10 73.332031 Z M 10 73.332031 "/>
<path style=" stroke:none;fill-rule:nonzero;fill:rgb(20%,20%,20%);fill-opacity:1;" d="M 10 73.332031 C 9.113281 73.339844 8.261719 72.992188 7.632812 72.367188 C 6.773438 71.488281 6.464844 70.207031 6.832031 69.035156 L 22.898438 22.367188 C 23.191406 21.53125 23.804688 20.851562 24.601562 20.464844 C 25.425781 20.152344 26.339844 20.152344 27.167969 20.464844 C 42.453125 25.828125 54.46875 37.847656 59.832031 53.132812 C 60.128906 53.972656 60.078125 54.898438 59.691406 55.699219 C 59.300781 56.5 58.609375 57.113281 57.765625 57.398438 L 11.101562 73.332031 C 10.734375 73.382812 10.363281 73.382812 10 73.332031 Z M 28.101562 27.699219 L 15.367188 64.632812 L 52.300781 51.898438 C 47.613281 41.042969 38.957031 32.386719 28.101562 27.699219 Z M 28.101562 27.699219 "/>
</g>
</svg>
