<?xml version="1.0" encoding="UTF-8"?>
<svg xmlns="http://www.w3.org/2000/svg" xmlns:xlink="http://www.w3.org/1999/xlink" width="80px" height="80px" viewBox="0 0 80 80" version="1.1">
<g id="surface1">
<path style=" stroke:none;fill-rule:evenodd;fill:rgb(8.235294%,49.411765%,98.431373%);fill-opacity:1;" d="M 52.5 65 L 52.5 70.007812 C 52.5 72.773438 50.265625 75 47.507812 75 L 9.992188 75 C 7.226562 75 5 72.753906 5 69.980469 L 5 12.519531 C 5 9.746094 7.25 7.5 10.019531 7.5 L 35 7.5 L 35 22.503906 C 35 25.285156 37.246094 27.5 40.015625 27.5 L 52.5 27.5 L 52.5 32.5 L 27.515625 32.5 C 23.367188 32.5 20 35.855469 20 39.996094 L 20 57.503906 C 20 61.644531 23.339844 65 27.515625 65 Z M 37.5 7.5 L 37.5 22.492188 C 37.5 23.878906 38.628906 25 39.976562 25 L 52.5 25 Z M 27.488281 35 C 24.734375 35 22.5 37.25 22.5 39.980469 L 22.5 57.519531 C 22.5 60.269531 24.757812 62.5 27.488281 62.5 L 70.011719 62.5 C 72.765625 62.5 75 60.25 75 57.519531 L 75 39.980469 C 75 37.230469 72.742188 35 70.011719 35 Z M 51.6875 57.207031 C 51.15625 57.398438 50.585938 57.5 49.988281 57.5 L 47.511719 57.5 C 44.734375 57.5 42.5 55.253906 42.5 52.484375 L 42.5 45.015625 C 42.5 42.214844 44.742188 40 47.511719 40 L 49.988281 40 C 52.765625 40 55 42.246094 55 45.015625 L 55 52.484375 C 55 53.75 54.542969 54.894531 53.785156 55.769531 L 55.667969 57.652344 L 53.902344 59.417969 Z M 49.480469 55 L 47.496094 55 C 46.105469 55 45 53.882812 45 52.5 L 45 45 C 45 43.609375 46.117188 42.5 47.496094 42.5 L 50.003906 42.5 C 51.394531 42.5 52.5 43.617188 52.5 45 L 52.5 52.5 C 52.5 53.0625 52.316406 53.578125 52.011719 53.992188 L 48.597656 50.582031 L 46.832031 52.347656 Z M 32.511719 40 C 29.742188 40 27.5 42.21875 27.5 45 C 27.5 47.761719 29.71875 50 32.5 50 L 34.976562 50 C 36.371094 50 37.5 51.109375 37.5 52.5 C 37.5 53.878906 36.394531 55 35.003906 55 L 32.496094 55 C 31.117188 55 30 53.859375 30 52.511719 L 30 52.484375 L 27.5 52.484375 L 27.5 52.496094 C 27.5 55.261719 29.734375 57.5 32.511719 57.5 L 34.988281 57.5 C 37.757812 57.5 40 55.28125 40 52.5 C 40 49.738281 37.78125 47.5 35 47.5 L 32.523438 47.5 C 31.128906 47.5 30 46.390625 30 45 C 30 43.621094 31.105469 42.5 32.496094 42.5 L 35.003906 42.5 C 36.382812 42.5 37.5 43.632812 37.5 45 L 40 45 C 40 42.238281 37.765625 40 34.988281 40 Z M 70 55 L 70 57.5 L 57.5 57.5 L 57.5 40 L 60 40 L 60 55 Z M 70 55 "/>
</g>
</svg>
