<?xml version="1.0" encoding="UTF-8"?>
<svg xmlns="http://www.w3.org/2000/svg" xmlns:xlink="http://www.w3.org/1999/xlink" width="80px" height="80px" viewBox="0 0 80 80" version="1.1">
<g id="surface1">
<path style=" stroke:none;fill-rule:nonzero;fill:rgb(0%,0%,0%);fill-opacity:1;" d="M 55 40 C 55 48.285156 48.285156 55 40 55 C 31.714844 55 25 48.285156 25 40 C 25 31.714844 31.714844 25 40 25 C 48.285156 25 55 31.714844 55 40 Z M 55 40 "/>
<path style=" stroke:none;fill-rule:nonzero;fill:rgb(0%,0%,0%);fill-opacity:1;" d="M 40 15 C 15 15 0 39.84375 0 39.84375 C 0 39.84375 15 65 40 65 C 65 65 80 40 80 40 C 80 40 65 15 40 15 Z M 40 60 C 18.125 60 6.25 40 6.25 40 C 6.25 40 18.125 20 40 20 C 61.875 20 73.75 40 73.75 40 C 73.75 40 61.875 60 40 60 Z M 40 60 "/>
</g>
</svg>
